<svg xmlns="http://www.w3.org/2000/svg" width="331" height="164" fill="none"  xmlns:v="https://vecta.io/nano"><g fill="#bf8d47"><path opacity=".7" d="M83.4 55.197c-6.612-3.218-41.081 7.075-43.285 6.766-2.446-.816-4.628-23.538-3.262-27.483.485-1.344 1.278-1.719 3.372-1.587 2.747-.273 5.472-.737 8.155-1.389 9.389-1.807 16.838-3.548 35.263-6.612.639.639 1.94-1.917 2.336-1.102.154.242 1.3.264 3.218.176 6.788-.287 13.951-1.058 18.645-1.388 16.133-1.124 34.205-2.557 50.426-2.579 3.394 0 .683 1.3 4.694.86 10.116-1.058 27.946 1.256 33.544.573 3.742-.761 7.62-.487 11.218.793 4.981 1.146 31.847 3.526 35.13 2.777.794-.309 1.345 0 1.279.441.551.154 18.689 3.835 18.689 4.408.015.13.061.254.134.362s.17.197.285.26.242.097.372.1.26-.025.377-.083c1.08-.529 21.334 2.402 21.312 3.945 0 4.408-6.986 21.202-10.094 24.971-1.631 2.006-5.157.992-9.609-.441-4.82-1.838-9.939-2.765-15.097-2.733-2.953-.573-17.411-2.997-23.185-3.747-25.566-3.24-22.899-2.865-33.522-1.895-1.058-1.609-5.664 1.807-8.243-1.08-1.035-1.19-9.08-1.741-10.887-.705-2.461.123-4.928.079-7.383-.132-2.204 0-35.263-1.807-39.34 1.411-8.309-2.579-36.277 3.328-44.542 5.113z"/><path opacity=".7" d="M227.141 35.053c4.76 2.05 49.5-2.579 54.679-.948 2.645 1.344-2.601 24.486-4.716 27.483-1.565 2.204-1.587 0-12.739.331-13.046.366-26.057 1.514-38.966 3.438-.661-.639-2.203 1.917-2.6 1.102-.816-1.234-22.701 1.895-24.243 2.204-20.298 2.909-35.572 6.171-55.495 10.359-3.747.771-1.036-1.124-5.356.242-8.507 2.667-29.797 5.862-36.739 8.683-3.855 1.828-8.055 2.812-12.32 2.887-5.752.441-35.263 8.154-38.194 10.622-.727.595-1.389.617-1.521.111-.331 0-21.114 4.407-21.246 4.077-.091-.111-.205-.2-.335-.261a.96.96 0 0 0-.415-.093.96.96 0 0 0-.414.093c-.13.061-.244.15-.335.261-1.168.948-23.053 7.802-23.758 6.457C.401 108.201-.591 90.063.886 85.126s17.235-3.372 28.298-8.816C96.58 60.332 78.861 65.423 95.412 59.318c1.675 1.212 6.039-3.614 9.807-1.653 1.565.816 11.02-.948 12.871-2.49.794-.661 13.422-2.821 26.447-5.069 3.284-.573 26.161-4.408 28.651-6.457 8.243.793 46.768-7.648 53.953-8.595z"/><path opacity=".7" d="M61.802 100.773c-9.874-3.063-55.363 11.02-57.985 11.02-1.587-.286-2.821-6.215-3.372-12.562-1.499-16.86.948-16.97 5.025-17.124 0 0 35.087-7.912 57.456-11.637.816.617 2.601-2.05 3.108-1.234 1.405.265 2.848.265 4.254 0 23.714-2.204 67.903-6.722 91.683-6.92 4.518 0 .948 1.278 6.259.771 10.799-1.014 23.847-.154 35.506 0 15.78 0 12.408-1.807 23.89.353 4.408.815 42.205 3.063 46.569 2.072 1.036-.331 1.763 0 1.719.419.551.11 24.971 3.46 25.037 4.011.062.149.153.283.269.396a1.21 1.21 0 0 0 .872.347c.161-.003.32-.038.468-.104 4.899 0 9.793.302 14.656.904 6.898.793 13.664 1.741 13.752 2.513.551 4.408-5.972 21.576-9.587 25.455-1.895 2.05-6.788 1.058-13.003-.264-18.381-3.967-11.02-1.389-30.546-3.57-54.129-6.061-58.184-4.165-67.22-3.46-1.499-1.609-7.582 1.873-11.174-.859-1.477-1.146-12.342-1.609-14.744-.529-2.204.749-55.627-1.565-63.033 2.755-12.386-2.931-57.654 6.899-59.858 7.251z"/><path opacity=".7" d="M274.062 72.409c5.466 2.711 45.731-.617 50.293 1.036 2.381 1.388-2.446 24.133-4.672 27.417-.793 1.168-1.697 1.345-3.703.684-5.069-1.675-36.452.308-44.938 1.035-.595-.705-2.203 1.764-2.468.904-1.741-3.284-67.286 5.863-74.625 6.942-3.504.507-.904-1.168-4.981-.132-8.639 2.204-27.99 3.769-34.447 6.083a25.46 25.46 0 0 1-11.549 2.028c-6.083 0-33.059 5.994-35.703 8.22-.706.573-1.301.529-1.411 0-.264 0-19.637 3.196-19.725 2.976-.066-.118-.16-.217-.273-.291s-.242-.119-.376-.132a.83.83 0 0 0-.394.058c-.125.05-.236.13-.323.232-.926.661-21.114 6.943-21.797 5.576-1.962-3.923-3.218-22.039-1.807-26.866s16.485-2.953 26.8-7.868c65.082-12.871 42.47-6.611 62.548-13.003 1.52 1.3 5.796-3.174 9.234-.948 1.411.904 10.293-.242 12.122-1.631 2.204-1.631 47.847-4.298 51.836-7.582 5.885 1.256 20.32-.837 50.36-4.738z"/><path opacity=".7" d="M96.998 135.001c-4.584-3.527-30.128 3.085-32.332 2.336-1.807-1.08-2.887-23.979-1.807-27.527.397-1.279.992-1.543 2.557-1.168.859.264 31.296-3.593 32.486-3.703.441.683 1.499-1.741 1.763-.882.22.507 3.438.507 8.199.463 2.204 0 23.273-1.014 45.886 0 2.534.11.44 1.257 3.46 1.036 7.559-.551 19.725 2.38 25.08 1.918 8.375-.684 2.689.815 21.885 3.878a58.84 58.84 0 0 0 12.761 1.279c.661-.287 1.058 0 .926.485 0 0 13.73 4.407 13.686 5.002s.309.904.794.684c1.388-.441 16.044 3.195 15.758 4.65-.816 4.232-9.036 20.386-11.968 23.979s-9.719-4.408-17.631-3.747l-10.359-2.865c-25.301-6.017-22.391-4.893-30.348-4.408-.639-1.697-4.253 1.653-5.928-1.3-.661-1.19-6.458-2.204-7.89-1.168-.595.44-8.287-.86-16.309-1.565-2.777-.265-15.913-1.3-17.874.661-6.193-3.019-27.329 1.014-32.795 1.962z"/><path opacity=".7" d="M219.779 117.193c2.535 3.152 24.684 3.328 27.087 5.753.991 1.608-8.067 24.485-8.992 26.116-.64 1.08-1.036 1.146-1.741.375-2.028-2.204-16.045-2.513-20.122-2.425-.243-.749-1.08 1.587-1.213.706-.44-3.196-30.965.551-35.769 1.124-1.697.22-.507-1.257-2.469-.551-3.768 1.366-13.884 1.366-16.882 3.019-.817.58-1.756.967-2.745 1.132s-2.002.101-2.963-.184c-2.623-.485-16.309 2.578-17.631 4.408-.309.484-.617.374-.728-.133 0 0-9.895.992-10.005.706s-.529-.684-.728-.287-10.534 4.188-11.019 2.755c-1.855-8.7-2.888-17.554-3.086-26.447.353-4.783 8.221-.749 13.224-4.408l26.116-4.099 5.378-2.447c.881 1.411 2.799-2.622 4.76-.132.794 1.014 5.29.639 6.193-.551.441-.617 16.662-1.366 17.411-1.432 1.896-.155 8.177-.507 9.279-2.028 3.725 1.984 15.031-.088 26.645-.97z"/></g><path d="M192 10l-19.5-7.5c-1.167 0-3.9.5-5.5 2.5-2 2.5-6.5-.5-9.5 0s-9 2-10.5 2.5-3 .5-5.5 2.5-1.5 0-3 3-3.5 3-9 6l-4.5 2.5c-.667.667-2 2.8-2 6 0 4-2.5 3-4 9.5s0 3.5 0 7v20.5c0 2 0 2.5 4 13.5 1 2.5 1 2.5 4.5 7 1 1.5 2.5 3 4 4.5s1.5 1.5 3.5 3 2.5 0 3.5 2 2 2 3 2c.8 0 3.333 3 4.5 4.5.5.833 2 3.5 4 7.5 0 3 .5 2 .5 15.5v7a18.76 18.76 0 0 1-.5 4c-1 1-3.2 3.5-4 5.5-1 2.5 1 5 2.5 6 1.2.8 1.833 1 2 1-.167.833-1 2.8-3 4s-1.167 2.5-.5 3l.5 2 2.5 2c2.667.5 8.5 1.5 10.5 1.5h8.5c1.5 0 3.5-1.5 3.5-6.5-1.2-2-.5-3.167 0-3.5l4.5-1.5c.5-.833 1.5-3.4 1.5-7 0-1.5-1.5-2.5-1.5-6.5 0-3.2 1-2.333 1.5-1.5.167-1 .8-5.5 2-15.5v-9.5c.5-2 .5-2.5 1.5-5s1.5-2.5 3.5-5.5c1.6-2.4.667-2 0-1.5l3.5-4c1-.5 3.8-2.1 7-4.5 4-3 7-3.5 7-4.5s6.5-5 9.5-8 0-4 0-6.5 2.5-6.5 2.5-12V46c0-2-2.5-7-2.5-9v-4.5L203 19l-11-9z" fill="#fff"/><path d="M198.909 8.482c-18-11.61-44.86-11.15-62.81.45-15 9.69-21.38 27.61-21.09 44.9.28 16.79 7.29 36.87 23.72 43.53 3.93 2.6 7.59 5.11 8.58 10.34 1.2 6.29-2.12 18.55 1.48 25.23-3.8 1-6.43 6.67-5.41 10.62.521 1.965 1.678 3.702 3.29 4.94-1.342 1.158-2.225 2.758-2.49 4.51-1.05 5.7 4.5 8 9.1 8.77 8.44 1.4 24.49 5.79 23.81-7.91-.007-.339-.082-.674-.219-.985a2.58 2.58 0 0 0-.581-.825h.09c6.2-2.49 7.07-8.59 3.92-14a2.5 2.5 0 0 0-.46-.56c.846-.522 1.578-1.208 2.155-2.016a7.46 7.46 0 0 0 1.205-2.694c.6-2.45.09-5.06 0-7.53-.17-4.19.08-8.41.27-12.59.25-5.63-.19-12 3.75-15.79.289-.056.571-.143.84-.26 8.67-4 17.67-8.43 23.55-16.23 5.64-7.47 7.42-17.82 8-27 1-17.57-5.54-35.14-20.7-44.9zm-27.07 145.38c-.13 6.16-7.25 3.87-11.34 3.22-2.07-.34-4.16-.51-6.23-.85a16.96 16.96 0 0 1-3-.68 4.42 4.42 0 0 1-1.84-.94c-.147-.347-.223-.72-.222-1.098a2.81 2.81 0 0 1 .858-2.02 2.8 2.8 0 0 1 .944-.602c2.629.935 5.352 1.579 8.12 1.92 4.232.759 8.552.884 12.82.37a3.26 3.26 0 0 0-.11.68h0zm3.51-13.78c1.38 3.61 1.54 5.63-2.55 6.74-3.088.683-6.267.848-9.41.49a42.29 42.29 0 0 1-9.26-1.5c-1.88-.57-4-1.35-5.12-3.07-.8-1.23-.37-7.26 1.79-7.32.54.44 1.131.812 1.76 1.11 5.17 2.39 13 3 18.67 2.92a24.99 24.99 0 0 0 3.93-.35 2.44 2.44 0 0 0 .19.98zm32.36-66c-4.63 8-13.34 12.14-21.25 16.3-10.26 4.19-9.18 17.29-9.54 27-.13 3.47-.15 6.89 0 10.36s-.15 5-4.11 5.35c-3.75.35-7.64-.34-11.32-1-1.68-.29-5.43-.28-6.77-1.61-2.43-2.42-.68-12.08-.72-15.2-.06-4.79-.34-10-2.78-14.29-2.83-5-8.13-6.74-13.23-8.6-21.21-16.28-22.65-56.62-3-74.24 14.1-12.66 38.12-14.38 54.92-6.69 14.67 6.7 22.49 20.92 22.91 36.72.24 8.31-.84 18.48-5.11 25.86v.04zm-23.87-39.569c-7.13 2.84-10.06 11.68-11.27 18.54-.32 1.82-.57 3.69-.74 5.58a35.84 35.84 0 0 1-8.84 2.34c-1.992.246-4.007.246-6 0-1.21-5.88-2.93-12-7.33-16.17s-11.2-4.42-12.61 2.5c-1.21 5.88 3.86 11.31 8.13 14.56a22.68 22.68 0 0 0 10 4.27c2.52 9 4.11 18.45 7.83 27 .32.74 1.41.1 1.09-.64-3.47-8-4.49-17.4-6-26a35.83 35.83 0 0 0 13.6-2.13 37.68 37.68 0 0 0 3.11 15.31c1.24 2.7 5.71.79 4.79-2a47.64 47.64 0 0 1-2.35-15.6 53.79 53.79 0 0 0 9.33-5.83c4.18-3.25 9.78-8.2 9.43-14.07a9 9 0 0 0-1.278-3.925c-.725-1.191-1.716-2.198-2.896-2.941a9 9 0 0 0-7.996-.794zm-38.44 20.67c-1.36-1.44-6.25-7.73-1.38-8.45 2.67-.4 5.83 5.47 6.73 7.35.935 1.991 1.763 4.031 2.48 6.11a18.53 18.53 0 0 1-7.83-5.01h0zm43.43-8.64c-1.815 2.339-3.969 4.395-6.39 6.1-1.541 1.147-3.147 2.206-4.81 3.17.7-5.24 2.36-13.75 7.6-16 5.44-2.3 5.82 3.61 3.6 6.73h0z" fill="#231f20"/><defs /></svg>