<svg xmlns="http://www.w3.org/2000/svg" xmlns:xlink="http://www.w3.org/1999/xlink" width="116" height="135" fill="none" xmlns:v="https://vecta.io/nano"><path d="M95.266 132.992l-8.91.1-4.975-.027a906.88 906.88 0 0 1-31.318-.109c-8.849-.178-19.123-.426-29.101-1.112-6.863-.472-15.115-2.008-18.069-9.771-2.63-6.91-.516-15.595 1.35-23.25l.759-3.17c.328-1.418.59-2.912.844-4.354 1.029-5.867 2.003-11.409 7.071-13.578.128-.055.239-.146.317-.261s.123-.251.127-.391-.032-.278-.104-.398a.73.73 0 0 0-.302-.279 9.23 9.23 0 0 1-2.378-1.673c-2.359-2.314-2.593-6.483-2.776-9.832l-.084-1.342c-.359-5.28-.556-10.848-.587-16.545-.058-10.427.102-22.706 1.733-34.707 1.526-7.364 8.08-8.781 14.934-9.208 1.421-.088 2.855-.132 4.239-.175l3.669-.148a406.6 406.6 0 0 1 41.155-.251c5.236.228 11.438.548 17.76 1.199l3.33.269c3.504.245 7.127.5 10.116 1.728 3.306 1.349 5.205 3.991 5.648 7.853.983 8.569 1.485 16.205 1.534 23.345.059 8.5-.274 16.186-1.019 23.512-.094.924-.151 1.96-.21 3.057-.239 4.278-.521 9.603-3.323 12.214a9.73 9.73 0 0 1-2.414 1.648.73.73 0 0 0-.408.693c.007.143.056.28.14.396a.73.73 0 0 0 .334.254c2.659.993 4.116 2.572 4.589 4.966.631 3.196 1.449 6.398 2.239 9.493.925 3.616 1.88 7.355 2.533 11.075 1.542 8.807 2.518 21.085-6.803 26.004-3.01 1.589-6.711 2.473-11.646 2.78l.006-.005z" fill="#efcd6f"/><mask id="A" maskUnits="userSpaceOnUse" x="-.071" y=".375" width="116" height="135" fill="#000"><path fill="#fff" d="M-.071.375h116v135h-116z"/><use xlink:href="#C"/><use xlink:href="#D"/><use xlink:href="#E"/></mask><g fill="#2d2d2d"><use xlink:href="#C"/><use xlink:href="#D"/><use xlink:href="#E"/></g><use xlink:href="#C" stroke="#2d2d2d" mask="url(#A)"/><use xlink:href="#D" stroke="#2d2d2d" mask="url(#A)"/><use xlink:href="#E" stroke="#2d2d2d" mask="url(#A)"/><g fill="#2d2d2d"><path d="M80.8 20.971l-.16-.192a.4.4 0 0 1 .332-.087c.105.02.191.079.251.146.112.127.193.385-.008.583l-.002.002-22.012 20.616-5.676 5.193c-5.13 4.733-10.313 9.515-15.82 13.714l-.004.003a.34.34 0 0 1-.27.061.36.36 0 0 1-.209-.58v-.001c1.957-2.396 4.257-4.575 6.517-6.716l2.217-2.12c3.997-3.893 8.098-7.675 12.207-11.443a476.47 476.47 0 0 1 22.481-19.372l.157.194zm0 0c.16-.133.387.126.239.271l-.239-.271zm-2.159 11.312h0l.392.466.175.178c.198-.197.12-.451.008-.578s-.356-.236-.575-.066zM44.866 42.572a.34.34 0 0 0-.043.259c.021.086.073.15.126.191a.37.37 0 0 0 .406.032c2.634-1.493 5.073-3.755 7.368-5.885l2.04-1.867c3.451-3.065 6.709-6.293 9.845-9.675l.012-.014a.43.43 0 0 0 .095-.28c-.002-.101-.04-.199-.107-.276s-.159-.127-.259-.143a.43.43 0 0 0-.29.057l-.009.005-.008.006a107.77 107.77 0 0 0-10.308 8.436h0c-.614.57-1.275 1.158-1.953 1.762l-2.766 2.52c-1.582 1.511-3.075 3.124-4.149 4.87zm0 0l.212.131-.213-.131z" stroke="#2d2d2d" stroke-width=".5"/><path d="M104.352 127.618c-9.205-.343-18.436.517-27.629.955-9.101.438-18.654-.17-27.666 1.143-.02.006-.038.018-.051.034a.1.1 0 0 0-.022.057c-.001.021.005.042.016.06s.028.031.048.038c8.71 1.967 18.769.547 27.605.143 9.241-.424 18.558-.718 27.735-2.018.237-.032.196-.403-.037-.412zm-27.258-1.35c9.088.532 18.293-.042 27.357-.756a.18.18 0 0 0 .133-.047c.036-.033.058-.079.06-.128s-.015-.096-.048-.132-.078-.058-.127-.061c-9.087-.721-18.288.314-27.363.868a.13.13 0 0 0-.092.033c-.025.023-.04.055-.042.089s.01.067.033.092a.13.13 0 0 0 .089.042zm14.88-61.811c-1.407.288-2.749.684-3.872 1.592-.029.02-.05.048-.061.081a.16.16 0 0 0 0 .102c.011.033.033.062.061.082s.063.03.098.028c1.113.013 2.144-.233 3.225-.485s2.699-.042 3.45-.951a.27.27 0 0 0-.024-.38c-.809-.719-1.906-.276-2.878-.069zm-.398 2.742c-.576.054-1.229.059-1.63.532-.023.025-.04.055-.052.087s-.016.066-.014.1a.26.26 0 0 0 .026.098c.015.031.036.058.062.08.457.42 1.106.344 1.684.326.768-.022 1.424-.02 2.017-.538.033-.023.059-.055.077-.091s.025-.077.023-.117-.015-.08-.037-.114-.052-.062-.088-.081c-.653-.439-1.314-.354-2.068-.281z"/></g><defs ><path id="C" d="M110.957 60.485c.799-7.836 1.079-15.719 1.024-23.592-.055-7.83-.648-15.647-1.539-23.422-.453-3.94-2.42-6.947-6.099-8.449-4.096-1.672-9.296-1.591-13.649-2.039-5.915-.61-11.861-.946-17.799-1.201a405.3 405.3 0 0 0-41.231.251c-8.916.523-21.272-.724-23.524 10.155C6.577 23.7 6.337 35.399 6.398 46.993c.031 5.534.214 11.069.59 16.591.252 3.727.18 8.809 3.083 11.647.754.733 1.619 1.342 2.563 1.806-6.795 2.917-6.725 11.421-8.354 18.453-1.865 8.087-5.182 18.682-2.08 26.846 3.033 7.977 11.198 9.724 18.703 10.24 9.696.666 19.426.918 29.137 1.115 10.446.211 20.891.248 31.335.109 8.216-.114 18.404 1.002 25.867-2.939 9.696-5.121 8.768-17.672 7.172-26.777-1.217-6.939-3.41-13.673-4.774-20.588-.59-2.995-2.557-4.579-5.059-5.511.945-.458 1.816-1.054 2.585-1.769 3.791-3.503 3.326-11.152 3.791-15.73zm-14.289 70.788c-14.594.79-29.267.643-43.87.411l-21.873-.625c-7.128-.298-16.04.444-22.145-3.712-3.423-2.33-4.934-5.588-5.431-9.18 4.078 2.681 12.175 3.041 15.431 3.485 12.856 1.758 25.92 2.248 38.88 2.48 13.22.237 26.507.073 39.68-1.109 2.904-.262 10.595-.257 14.949-2.268-2.07 6.15-7.166 10.052-15.613 10.51l-.008.008zM59.302 115.44c5.396-.088 12.096-.495 12.294 6.688a572.91 572.91 0 0 1-12.368-.037l.079-6.658-.005.007zm-2.138 6.618l-12.368-.348c.331-7.263 6.998-6.385 12.442-6.271l-.07 6.612-.005.007zm44.669-42.719c4.004.881 5.214 2.023 6.177 6.45.547 2.513 1.154 5.01 1.776 7.502 1.376 5.472 2.746 10.9 3.386 16.518a28.71 28.71 0 0 1-.119 7.883c-1.037 1.255-4.25 1.612-5.524 1.881-4.174.882-8.474 1.237-12.72 1.582-7.023.574-14.075.843-21.13.938-.026-3.117-.284-7.275-4.04-8.08-3.542-.76-7.246-.578-10.854-.623-3.877-.047-7.901-.377-11.719.352s-4.228 4.614-4.336 7.861c-6.777-.322-13.545-.817-20.281-1.58-4.268-.484-8.535-1.101-12.718-2.087-1.619-.383-5.779-1.055-6.57-2.916.014-3.937.88-8.055 1.557-11.651.747-3.961 1.684-7.885 2.608-11.806 1.225-5.185 1.406-11.935 7.789-13.191a1.07 1.07 0 0 0 .52-.277c1.663.382 3.403.548 5.155.69 5.699.474 11.415.746 17.127.99a680.95 680.95 0 0 0 40.741.529 403.22 403.22 0 0 0 17.501-.662c1.768-.11 3.523-.23 5.199-.578.132.133.3.225.483.266l-.006.007zm-9.882-1.524c-6.611.344-13.236.455-19.853.508a679.82 679.82 0 0 1-40.309-.879c-5.469-.276-11.191-.258-16.54-1.515-6.837-1.606-6.135-10.696-6.435-16.202-.68-12.736-.544-25.503.408-38.222a143.84 143.84 0 0 1 .934-8.879c1.57-7.595 7.838-7.291 14.208-7.942 5.747-.589 11.529-.836 17.3-1.02 12.984-.414 26.007-.197 38.972.582 5.812.347 11.578 1.006 17.362 1.634 2.713.294 5.498.63 7.772 2.263 3.547 2.546 3.052 9.451 3.392 13.304 1.43 16.238 1.598 33.788-1.705 49.811-1.428 6.961-10.049 6.265-15.5 6.548l-.006.007z"/><path id="D" d="M102.884 12.389c-2.068-2.975-6.63-3.212-9.83-3.555-5.645-.604-11.278-1.135-16.947-1.456-12.941-.717-25.91-.77-38.856-.158-8.211.381-21.26-1.203-23.501 8.975-1.576 11.297-1.7 22.824-1.47 34.21.136 6.451-1.475 19.859 6.753 22.218 4.517 1.295 9.521 1.218 14.184 1.475 6.705.374 13.42.583 20.132.729 12.944.281 25.916.239 38.846-.501 3.682-.211 7.25-.549 9.963-3.26 1.254-1.257 1.712-3.26 2.073-4.906.967-4.397 1.139-9.131 1.482-13.61.55-7.179.57-14.382.259-21.575-.247-5.718.338-13.66-3.088-18.586zm.794 14.838c.534 7.09.536 14.207.224 21.306-.195 4.45-.638 8.884-1.166 13.304-.475 3.964-.761 8.076-5.033 9.659-4.535 1.682-10.706 1.052-15.471 1.204-5.816.194-11.635.219-17.453.206-11.93-.027-23.871-.367-35.776-1.111-6.17-.387-12.961-.113-13.863-7.87-.526-4.525-.673-9.099-.792-13.649-.294-11.187-.114-22.562 1.43-33.659C17.3 9.703 23.89 10.31 29.591 9.797c5.01-.45 10.044-.639 15.07-.78 11.524-.325 23.08-.105 34.587.597 5.326.327 10.641.882 15.938 1.534 2.941.361 5.543 1.12 6.943 4.013 1.615 3.33 1.275 8.445 1.549 12.066z"/><path id="E" d="M57.58 83.182c-12.245-.139-24.497-.446-36.724-1.14a.53.53 0 0 0-.338-.018c-2.6-.15-5.651-.465-7.173 2.151-2.983 5.134-3.974 11.453-4.254 17.293-.182 3.793 2.449 4.754 5.721 5.734 5.717 1.711 11.865 2.224 17.778 2.759 16.122 1.455 32.465 1.602 48.622.694 6.138-.345 12.325-.857 18.346-2.153 2.146-.457 6.873-1.312 7.218-4.155 0-.046-.002-.093-.009-.139a.83.83 0 0 0 .03-.138c.123-6.146-.861-12.318-3.34-17.973-1.284-2.93-3.617-3.312-6.544-3.274l-39.333.358zm46.094 9.931l-3.074.495c-.364-1.598-.749-3.219-1.204-4.821l2.923-.411c.658 1.473 1.067 3.198 1.364 4.73l-.009.007zm-10.056 14.336c-1.967.276-3.942.497-5.922.679l-.397-4.993 6.028-.562a60.12 60.12 0 0 1 .29 4.876zm-6.432-5.356c-.198-1.928-.433-3.847-.736-5.763l5.88-.563c.361 1.909.663 3.833.887 5.772a205.82 205.82 0 0 1-6.031.554zm-7.172.46c-.132-1.904-.309-3.804-.523-5.694l-.004-.057 5.928-.386c.304 1.91.543 3.83.739 5.755l-6.147.384zm-63.851-2.567c.345-1.931.785-3.847 1.258-5.739a120.67 120.67 0 0 0 6.454 1.043c-.387 1.907-.73 3.833-.988 5.768-2.254-.302-4.489-.653-6.723-1.072zm6.594 2.087a57.96 57.96 0 0 0-.354 4.643c-2.125-.259-4.638-.554-6.875-1.208.07-1.51.224-3.015.464-4.507 2.239.419 4.496.771 6.765 1.072zM11.606 96.48c.149-1.124.376-2.242.633-3.354 1.375.338 2.76.645 4.155.92-.481 1.883-.917 3.805-1.255 5.734-1.341-.265-2.677-.554-4.005-.867.189-.99.402-1.898.472-2.433zm2.486-9.056c1.291.282 2.59.538 3.896.768-.472 1.569-.888 3.154-1.297 4.709l-.037.14c-1.393-.281-2.778-.587-4.155-.92.427-1.599.959-3.168 1.592-4.697zm6.636-3.686c2.033-.026 4.257.195 6.201.421-.572 1.342-1.049 2.722-1.427 4.131-2.071-.255-4.134-.551-6.184-.902.405-1.241.876-2.459 1.41-3.65zm4.521 5.55c-.341 1.343-.639 2.693-.939 4.01l-.216.989a129.37 129.37 0 0 1-6.416-1.041l.031-.125 1.303-4.742a129.2 129.2 0 0 0 6.235.909h.003zm15.154-4.379a32.44 32.44 0 0 0-1.38 4.507l-5.561-.346c.426-1.468.905-2.92 1.459-4.349l5.482.188zm6.474.153c-.5 1.515-.922 3.055-1.264 4.613l-5.559-.206a30.81 30.81 0 0 1 1.453-4.527l5.367.124.003-.004zm5.951.118a63.03 63.03 0 0 0-.782 4.638l-5.382-.115c.351-1.561.787-3.103 1.304-4.617l4.86.093zm16.76.136a44.88 44.88 0 0 1 1.171 4.522l-5.377.069a64.16 64.16 0 0 0-.671-4.612l4.874.027.003-.005zm13.033-.08a51.97 51.97 0 0 1 1.276 4.067l-5.514.303c-.314-1.466-.73-2.909-1.244-4.317l5.479-.048.003-.005zm6.996-.122c.482 1.188.882 2.407 1.197 3.649l-5.865.48c-.364-1.357-.776-2.7-1.248-4.027l5.913-.097.003-.005zm2.286 8.505l.228 1.121-5.861.553c-.29-1.69-.624-3.368-1.039-5.029l5.833-.488c.304 1.291.569 2.585.836 3.847l.003-.005zm-7.721-3.277a67.85 67.85 0 0 1 1.052 5.025l-5.872.377c-.199-1.689-.436-3.399-.761-5.09l5.578-.307.003-.005zm-5.854 5.446l-5.61.218c-.17-1.724-.399-3.438-.705-5.129l5.547-.177c.322 1.686.562 3.396.765 5.093l.003-.005zm-6.643.245l-5.803.099c-.095-1.722-.215-3.448-.385-5.164l5.471-.069c.309 1.692.541 3.414.717 5.134zm.41 6.806l-5.906.098-.255-5.743 5.852-.096c.159 1.912.254 3.831.305 5.741h.003zm-27.047-.142c.094-1.929.224-3.868.429-5.795l5.859.156-.38 5.779-5.909-.139zm7.319-5.62l1.577.033 4.567.069-.122 5.754-3.153-.027-3.252-.052.383-5.779zm7.175.114l5.36.003.248 5.743a780.86 780.86 0 0 1-5.727-.002l.119-5.746zm4.811-7.274a498.59 498.59 0 0 1-4.689-.006 143.23 143.23 0 0 0-.052-4.642l4.054.029a60.41 60.41 0 0 1 .687 4.618v.002zm.113 1.052c.169 1.716.292 3.443.384 5.169l-5.283.002.087-5.183 4.813.012zm-5.931 5.161l-3.133-.026-2.962-.046c.134-1.736.289-3.474.507-5.201l1.218.025 4.455.059-.085 5.188zm-7.125-.09l-5.806-.144c.209-1.748.473-3.486.825-5.195l5.48.132c-.207 1.729-.375 3.468-.499 5.205v.002zm-6.837-.169l-5.64-.237c.23-1.719.514-3.458.886-5.174l5.572.214a70.42 70.42 0 0 0-.817 5.195v.002zm-5.776-5.456c-.362 1.707-.638 3.445-.885 5.16l-5.906-.415a68.24 68.24 0 0 1 1.157-5.096l5.634.352zm-7.818 4.657a152.91 152.91 0 0 1-5.856-.646l.197-.919.949-4.101c1.944.216 3.899.407 5.854.565-.449 1.687-.82 3.388-1.144 5.099v.002zm-6.066.361a154.03 154.03 0 0 0 5.872.632c-.342 1.919-.614 3.851-.851 5.779-2.011-.181-4.016-.398-6.015-.651.261-1.926.603-3.851.994-5.761v.002zm6.898.721a202.2 202.2 0 0 0 5.96.417c-.268 1.92-.494 3.854-.665 5.794l-6.146-.428c.235-1.936.509-3.867.851-5.785v.002zm6.909 1.086l.082-.623 5.656.242c-.207 1.93-.344 3.868-.439 5.799l-5.87-.244c.158-1.724.348-3.447.571-5.168v-.007zm5.255 6.41l-.14 5.09-6.03-.381c.033-1.654.131-3.306.259-4.956l5.911.26-.001-.013zm1.026.035l8.782.213c6.085.127 12.208.143 18.335-.006l.025 5.061c-9.047.264-18.174.269-27.276-.164l.135-5.09-.001-.014zm28.139.185l5.91-.223c.098 1.679.146 3.36.146 5.044l-6.034.231a154.19 154.19 0 0 0-.012-5.039l-.009-.013zm-.026-1.064c-.052-1.912-.146-3.833-.307-5.745l5.634-.219.089.776c.186 1.649.334 3.305.446 4.968l-5.857.233-.004-.013zm20.226-7.158c2.169-.247 4.331-.536 6.488-.865a74.62 74.62 0 0 1 1.157 5.756c-2.246.33-4.498.623-6.755.877-.228-1.935-.535-3.851-.89-5.768zm7.502-1.019l3.033-.507.278 1.532a32.35 32.35 0 0 1 .518 4.31l-2.687.42c-.314-1.931-.717-3.851-1.141-5.752l-.001-.003zm-1.34-1.207l.082.344a189.09 189.09 0 0 1-6.44.852l-.093-.486-.937-4.467a204.61 204.61 0 0 0 6.227-.736c.423 1.498.795 3.011 1.161 4.497v-.003zm-7.639-4.773c-.308-1.21-.69-2.399-1.145-3.562l6.278-.179a36.28 36.28 0 0 1 1.05 3.019 193.12 193.12 0 0 1-6.183.725v-.003zm-15.835-3.351a30.34 30.34 0 0 1 1.301 4.347l-5.524.176c-.307-1.522-.68-3.025-1.134-4.497h.394l4.962-.023zm-17.449-.047l.053 4.645-3.011-.025-2.541-.037c.212-1.568.48-3.119.797-4.643l4.701.063zm-24.742-.565c-.537 1.418-1.013 2.851-1.427 4.3a180.86 180.86 0 0 1-5.875-.574 28.63 28.63 0 0 1 1.461-4.133c1.223.146 2.282.272 3.01.301l2.831.107zm-14.285-.901a39.92 39.92 0 0 0-1.254 3.421c-1.271-.23-2.536-.481-3.794-.752.08-.174.146-.365.229-.541.654-1.402 2.528-1.97 4.819-2.128zM10.97 99.932a103.59 103.59 0 0 0 4.007.867c-.229 1.448-.383 2.906-.464 4.37-1.222-.446-2.322-1.023-3.169-1.802-.62-.566-.582-1.985-.374-3.435zm12.458 6.907a55.22 55.22 0 0 1 .357-4.632c2.003.25 4.015.457 6.031.635l-.48 4.735-5.364-.676-.543-.062zm6.929.857l.481-4.766 6.191.426c-.127 1.645-.216 3.293-.252 4.937l-6.42-.592v-.005zm49.882.954c-.002-1.685-.055-3.366-.159-5.043l6.184-.385.397 4.999a181.2 181.2 0 0 1-6.422.434v-.005zm14.402-1.338a55.93 55.93 0 0 0-.302-4.857 188.05 188.05 0 0 0 6.793-.885 43.42 43.42 0 0 1 .399 4.555c-2.392.705-5.461 1.024-6.886 1.192l-.004-.005zm7.918-1.529c-.067-1.457-.207-2.91-.42-4.353l2.566-.418a62.86 62.86 0 0 1 .029 2.977c-.128.754-.984 1.341-2.172 1.799l-.003-.005zm-.711-18.394l-2.745.386c-.3-.982-.627-1.952-1.006-2.898l.027-.002c1.697-.015 2.879 1.03 3.728 2.518l-.004-.005z"/></defs></svg>