<svg xmlns="http://www.w3.org/2000/svg" width="111" height="129" fill="none"  xmlns:v="https://vecta.io/nano"><path d="M24 11l6-3c-.5 0 0-.2 6-1 7.5-1 9.5-.5 17.5-.5S65 6.5 73 8s5.5.5 8 .5 6 1 10.5 2.5 4.5 2 6 3 .5 1 .5 2-.5 1.5 0 4.5.5 4 .5 7.5-.5 3 0 7.5 1 5.5 1.5 9-.5 5-1 8.5.5 9 .5 15.5 0 6 .5 10.5.5 9.5 1 14 .5 4 .5 6.5-1.5 5-2 10.5-3 7-3.5 8.5-5 1-6 1-6 .5-16.5 2.5-12-.5-15.5-1-7.5 0-11 0H20.5c-2.5 0-5-1-6-1.5s-1-3.5-2-9.5 0-6 0-10.5-1-6-1.5-9.5-1.5-6.5-1.5-11.5-1-5.5-1.5-10S8 63 8 54s-.5-8 0-19 0-3.5.5-6 4-6.5 5-7.5 2-3.5 4.5-6.5 5-3.5 6-4z" fill="#efcd6f"/><path d="M103.85 94.39c.245-11.673-.237-23.371-.595-35.049l-1.157-31.362c-.395-9.721.656-15.549-9.157-19.483-.185-.076-.383-.119-.583-.127-11.682-4.287-26.299-3.495-38.453-3.551a218.47 218.47 0 0 0-22.558 1.001c-5.392.531-6.497 1.446-9.982 5.307-5.437 6.029-14.168 12.849-14.527 21.4-.53 12.669.262 25.467.821 38.123.573 13.004 1.264 26.017 2.333 38.985.233 2.818-.049 7.661 1.621 10.049 1.792 2.562 6.599 2.03 9.45 2.233 13.102.941 26.324.967 39.452.876 6.442-.047 12.885-.234 19.314-.643l3.293-.206a1.46 1.46 0 0 0 .229-.01l.018.001c4.206-.297 8.743-.886 12.019-3.257 7.515-5.437 8.28-15.711 8.461-24.287zM11.756 72.793c-.607-12.968-1.245-26-.939-38.984.163-7.055 6.933-13.832 12.576-19.345-.495 3.074-.536 6.335-.712 9.165-.581 8.906-.515 17.87-.415 26.79.193 17.111.315 34.892 3.204 51.812.159.923.808 1.625 1.801 2.156-.034.996-.036 1.989-.358 2.993-.682 2.177-2.463 3.894-4.134 5.348a30.88 30.88 0 0 1-5.47 3.658c-.568.312-1.315.572-1.934.948l-.196-.015c-.694-.054-.884-4.706-.952-5.386-1.282-12.998-1.858-26.097-2.469-39.14zm23.787 45.746c-4.996-.132-9.999-.315-14.988-.677-.645-.05-1.291-.123-1.938-.194l.157-.078c2.409-1.163 4.645-2.657 6.642-4.437 1.767-1.569 4.304-5.054 4.226-7.917 6.947 1.615 20.299-.332 23.171-.407l22.438-.513c1.858-.032 3.732-.107 5.588-.022 8.232.37 8.388 9.992 2.76 13.558a79.19 79.19 0 0 1-3.07.301c-14.912 1.213-30.048.799-44.987.386zm54.957-2.237c3.023-6.54-1.383-15.954-10.589-16.007-14.685-.083-29.394.668-44.075.991-1.892.043-3.763-.018-5.644-.028s-1.786-7.868-2.006-9.982c-1.056-10.193-1.47-20.459-1.814-30.694-.338-10.091-.438-20.197-.187-30.296.155-6.291-.32-14.083 2.07-20.046a2.2 2.2 0 0 0 .069-.233c3.634-1.529 12.093-.908 14.815-1.023 6.3-.268 12.614-.216 18.919-.07 9.28.226 20.469-.337 29.428 2.632a2.04 2.04 0 0 0 .305.175c7.899 3.531 6.286 9.039 6.549 16.789l.61 17.754 1.021 44.041c-.002 5.645-.235 11.15-1.527 16.683-1.221 5.181-4.169 7.849-7.942 9.314h0zm-74.078-3.909c.152-14.246-.799-28.534-1.357-42.763-.511-13.045-.218-26.403-1.805-39.37-.016-.124-.212-.109-.219.014-.938 13.767.374 27.919.867 41.694.494 13.47.707 27.039 2.169 40.459.009.041.033.078.067.103s.077.036.119.032.082-.023.111-.054.046-.071.047-.114h0zm65.161 2.613c-9.19-.621-18.443-.041-27.645.119-9.11.162-18.64-.734-27.687.305a.1.1 0 0 0-.052.033.09.09 0 0 0-.023.056c-.001.021.003.042.014.06s.027.032.046.04c8.647 2.229 18.744 1.115 27.588.978 9.249-.144 18.571-.156 27.784-1.178.238-.025.208-.397-.024-.413zm-27.205-2.174c9.068.807 18.285.512 27.368.073.049.004.097-.012.134-.044s.06-.077.064-.126-.012-.097-.044-.134-.077-.06-.126-.064c-9.061-.996-18.289-.24-27.377.04-.034-.003-.067.008-.093.03s-.042.054-.044.087a.13.13 0 0 0 .03.094c.022.025.053.041.087.044zm-21.295-3.684c8.745.63 18.005.885 26.675-.623.229-.038.214-.412-.024-.412-8.85-.01-17.783.158-26.62.642-.245.012-.291.372-.03.393zm28.957-.828c1.133.247 2.297.158 3.453.117 1.073-.037 2.031-.083 3.054-.432a.22.22 0 0 0 .087-.084.21.21 0 0 0-.012-.23c-.024-.033-.057-.058-.095-.073a8.46 8.46 0 0 0-2.602-.171c-1.289.071-2.622.053-3.851.447-.179.058-.275.374-.033.426zM18.872 94.205c.018.194.346.176.34-.02l-1.268-37.093c-.38-10.405-.045-21.288-1.719-31.59-.003-.018-.013-.033-.027-.044s-.032-.017-.049-.016-.035.008-.048.02-.021.029-.023.047c-.515 11.185.584 22.649.985 33.832.415 11.637.746 23.267 1.808 34.864zm.771 6.726a10.23 10.23 0 0 0-.223-4.793c-.035-.108-.228-.167-.255-.02a10.25 10.25 0 0 0 .215 4.829c.009.029.027.054.052.071s.055.026.085.024a.14.14 0 0 0 .082-.034c.023-.02.038-.047.044-.077h0zm2.153 8.187c.765-8.561.208-17.776-.936-26.302-.021-.163-.296-.149-.291.018.28 8.747.212 17.595.911 26.303.013.191.3.162.317-.019zm29.795 3.713c.214-.014.254-.332.027-.345-7.075-.423-14.523-.614-21.58.082-.014.002-.027.008-.037.019s-.016.023-.017.037.003.028.011.04.02.02.033.024c6.731 1.518 14.708.521 21.563.143zm31.299-4.472c-3.63-.21-7.791-.261-11.341.641a.11.11 0 0 0-.07.039c-.018.022-.027.048-.025.076s.013.053.033.072.046.031.074.032c3.589.412 7.845.661 11.349-.373.262-.075.275-.469-.019-.487zm-64.108-4.733c-.215 2.336-.107 5.139.591 7.39.008.034.028.063.056.084s.062.031.096.029a.15.15 0 0 0 .093-.04c.026-.024.042-.055.046-.089.323-2.313.269-5.25-.65-7.418-.012-.024-.031-.043-.055-.055s-.051-.015-.077-.01-.05.018-.068.038a.12.12 0 0 0-.032.071h0zm.876-58.955c.491 9.502.299 19.013.894 28.529.007.139.247.124.242-.015 0-9.477.108-19.092-.99-28.521-.009-.083-.151-.076-.147.006zm.086-12.342c.015.03.039.054.068.071s.062.025.096.023.066-.013.093-.033.048-.047.06-.078c.455-1.633.372-3.34.408-5.024.036-1.622.136-3.528-.71-4.959-.034-.057-.141-.073-.16.008-.377 1.554-.162 3.272-.183 4.862-.015 1.746-.228 3.462.328 5.13zm-.157 2.711c-.073.941-.168 1.804.342 2.639.015.03.039.055.068.071s.062.025.096.023.066-.013.093-.033.048-.047.06-.078c.422-.907.328-1.845.36-2.82.017-.219.146-1.485-.442-1.318s-.53 1.006-.577 1.515zm55.509 40.751c-.331 1.283-.349 2.647-.592 3.957-.234 1.265-.833 2.432-.747 3.735a.29.29 0 0 0 .065.13c.032.037.074.065.12.081s.096.02.145.012.094-.029.132-.061c.936-.844 1.163-2.058 1.39-3.261.274-1.449.526-3.1.127-4.543-.072-.262-.55-.387-.64-.05zm2.473.306a.26.26 0 0 0-.099-.016c-.033.001-.067.009-.098.024s-.058.035-.081.06a.26.26 0 0 0-.052.086c-.227.472-.089 1.145-.101 1.658-.009.674-.3 1.352-.136 2.014.086.348.569.609.859.3.56-.603.557-1.425.531-2.217-.019-.676-.142-1.602-.824-1.909zm-27.476-3.641c-1.434.089-2.818.294-4.056 1.037-.031.016-.057.041-.072.072a.16.16 0 0 0 .035.19c.026.024.058.038.093.042 1.101.168 2.156.067 3.262-.032s2.679.334 3.549-.461a.27.27 0 0 0 .029-.38c-.701-.824-1.849-.539-2.84-.47zm-.776 2.659c-.578-.027-1.226-.113-1.689.3-.026.022-.048.049-.063.079a.27.27 0 0 0-.028.097.26.26 0 0 0 .012.1c.01.032.028.062.05.088.394.48 1.047.495 1.622.557.763.085 1.413.179 2.073-.252.036-.019.066-.046.089-.08s.036-.073.039-.113a.24.24 0 0 0-.021-.118c-.017-.037-.043-.069-.075-.093-.585-.525-1.252-.534-2.009-.567zm36.715-46.259c-1.796-4.823-7.351-4.772-11.597-4.789-5.931-.022-11.905.564-17.826.84-4.203.187-8.318-.089-12.381 1.114-5.48 1.627-6.992 6.925-7.539 11.989a1.92 1.92 0 0 0-.212.676c-.786 6.819-2.07 14.723 1.982 20.738 3.296 4.875 12.641 4.031 17.521 3.747 11.131-.649 32.258 3.065 32.723-13.032.213-6.935-.257-14.801-2.671-21.284zM57.155 57.628c-4.096 1.065-10.874 2.291-14.192-1.315-1.685-1.83-2.309-4.077-2.431-6.53-.213-4.225-.263-9.097 1.138-13.128.017-.042.047-.077.085-.1a.22.22 0 0 1 .128-.031c.045.003.087.021.121.05a.22.22 0 0 1 .069.112c.843 4.615-1.976 16.712 3.909 18.862 3.584 1.305 7.54.429 11.21 1.607.045.023.083.059.108.103s.036.095.032.145-.023.099-.054.139-.074.069-.122.085zm5.331.388a5.71 5.71 0 0 1-3.166-.246.48.48 0 0 1 .071-.921c.994-.175 2.004-.242 3.013-.2a.68.68 0 0 1 .572.393.98.98 0 0 1 .07.357c-.016.149-.079.289-.18.4a.7.7 0 0 1-.381.216zm20.911-19.644c-.008.072-.038.139-.087.192s-.113.089-.184.102-.144.004-.209-.027a.33.33 0 0 1-.151-.147c-.887-2.032-1.781-5.584-3.778-6.799-2.906-1.765-6.594-1.01-9.471-2.717-.018-.012-.032-.029-.041-.048s-.013-.041-.012-.062.009-.042.021-.06.029-.032.048-.041c3.287-1.313 8.455-.983 11.353 1.187 2.745 2.053 2.934 5.342 2.51 8.42h0z" fill="#2d2d2d"/><defs /></svg>