<svg width="239" height="211" viewBox="0 0 239 211" fill="none" xmlns="http://www.w3.org/2000/svg">
<g clip-path="url(#clip0)">
<path d="M2.46257 5.96944C11.9383 10.131 12.9617 18.3472 10.7372 26.4166C7.77065 29.4035 5.55861 32.6694 3.61511 36.1004C2.784 37.4398 3.73039 39.5021 5.3544 39.5756C5.57178 39.5242 5.78915 39.4728 5.84031 39.6893C6.21118 40.2874 6.79944 40.8343 7.50275 40.8967C17.0421 40.4712 26.6839 40.4788 36.364 41.6202C38.9599 41.9212 38.9085 37.8186 36.53 37.4663C28.4227 36.1818 20.2004 35.3816 11.9141 35.2823C12.8091 33.242 13.7041 31.2018 14.548 28.945C32.5772 10.0544 67.4224 1.13452 88.4969 16.4996C93.8039 20.5032 98.152 27.248 100.377 34.723C87.4365 34.3521 75.0841 38.414 66.2742 48.7253C56.7993 60.1082 70.0092 68.4164 80.6228 68.6516C97.9498 69.129 106.926 54.6637 105.032 38.8808C119.418 40.5105 133.728 47.6445 143.677 56.7233C148.651 61.2627 151.554 66.7488 152.718 72.6458C142.987 71.2878 133.333 72.1977 125.763 75.1295C116.94 78.586 101.608 86.5523 104.639 98.4088C107.005 107.451 119.371 110.244 127.338 109.961C139.856 109.518 150.815 100.527 155.2 88.9755C156.607 85.2142 157.143 81.6585 157.194 77.9889C175.724 81.6112 192.553 94.5505 188.96 115.287C188.896 115.988 189.92 116.432 190.201 115.68C198.217 92.2976 178.485 77.7582 156.823 73.5046C155.467 65.8242 151.068 58.8628 144.866 53.0133C134.814 43.5015 119.367 36.4078 104.38 35.1488C96.2066 -4.29579 43.5098 -0.987135 16.0053 21.5141C16.7721 13.1034 13.9584 5.08163 3.71548 1.55858C0.914971 0.391581 -0.120557 4.75107 2.46257 5.96944ZM138.539 102.971C131.225 106.985 102.351 107.179 109.818 92.156C112.886 85.7159 121.492 82.3107 127.54 79.7385C135.66 76.2196 144.867 76.3299 153.409 77.5117C153.87 87.2325 148.858 97.1035 138.539 102.971ZM96.3635 58.5312C90.1492 65.2574 77.6176 66.6185 69.996 61.5616C57.4895 53.3158 85.8896 40.4326 91.158 39.4162C94.4699 38.8622 97.6156 38.5761 101.081 38.6715C102.335 45.919 101.095 53.2985 96.3635 58.5312Z" fill="#9e4e2d"/>
<path d="M96.9648 133.213C97.291 133.31 97.8499 133.389 98.6417 133.448C99.4388 133.489 99.994 133.447 100.307 133.324C100.644 133.188 100.902 132.821 101.081 132.223C101.238 131.697 101.366 131.005 101.465 130.146C101.588 129.275 101.57 128.51 101.412 127.85C101.359 127.696 101.269 127.6 101.142 127.562C100.816 127.465 100.318 127.711 99.6484 128.3C98.984 128.871 98.2655 129.722 97.4928 130.853C96.959 131.582 96.6379 132.128 96.5295 132.49C96.4211 132.853 96.5662 133.093 96.9648 133.213ZM99.4885 145.665C98.6549 145.415 98.1735 144.847 98.0442 143.959C98.0274 143.421 98.1762 142.627 98.4906 141.576C98.6749 140.96 98.8195 140.509 98.9243 140.225C99.0346 139.922 99.153 139.592 99.2795 139.235C99.3825 138.891 99.4565 138.578 99.5016 138.295C99.5702 138 99.5609 137.799 99.4739 137.694C99.405 137.595 99.2709 137.515 99.0715 137.456C98.9628 137.423 98.7698 137.375 98.4926 137.312C98.2335 137.254 97.8431 137.207 97.3213 137.169C96.8049 137.113 96.3203 137.116 95.8675 137.178C95.4382 137.227 95.1457 137.347 94.99 137.538C94.8525 137.733 94.7539 137.931 94.6943 138.13C94.5751 138.529 94.5683 139.178 94.6741 140.079C94.7854 140.961 94.7732 141.628 94.6377 142.081C94.6052 142.19 94.5329 142.366 94.4208 142.609C94.314 142.834 94.0461 143.069 93.617 143.316C93.1678 143.497 92.7711 143.537 92.4268 143.434C91.9738 143.298 91.6058 143.011 91.3229 142.571C90.2164 140.858 90.3542 137.691 91.7364 133.07C92.0201 132.188 92.407 131.257 92.8972 130.278C93.3874 129.3 93.9681 128.348 94.6395 127.424C95.329 126.505 96.0847 125.694 96.9066 124.992C97.7466 124.296 98.6466 123.795 99.6065 123.49C100.59 123.172 101.609 123.132 102.663 123.368C104.334 123.986 105.357 125.319 105.732 127.366C105.944 129.166 105.638 131.74 104.814 135.087C104.415 136.685 103.888 138.58 103.232 140.773C102.972 141.643 102.716 142.464 102.465 143.238L102.14 144.325C101.964 144.845 101.674 145.223 101.268 145.457C100.716 145.785 100.123 145.854 99.4885 145.665Z" fill="white"/>
<path d="M122.742 150.769C121.511 150.56 120.648 150.222 120.152 149.754C119.215 148.943 118.806 147.118 118.923 144.279C118.987 142.774 119.224 140.81 119.636 138.386C119.861 137.062 120.109 135.771 120.38 134.512C120.449 134.332 120.507 134.102 120.555 133.822L120.607 133.342C120.718 132.689 120.844 132.059 120.986 131.45C121.545 128.839 122.476 127.645 123.782 127.867C125.031 128.079 125.504 129.08 125.2 130.87C124.87 132.924 124.558 134.991 124.262 137.071C124.182 137.767 124.07 138.544 123.924 139.402C123.446 142.217 123.22 144.28 123.247 145.589C123.33 146.121 123.669 146.437 124.266 146.539C124.527 146.583 125.054 146.586 125.847 146.548C126.718 146.504 127.312 146.509 127.629 146.563C128.431 146.699 128.958 147.096 129.211 147.752C129.34 148.12 129.374 148.49 129.31 148.863C129.291 148.975 129.227 149.184 129.117 149.492C129.026 149.802 128.686 150.109 128.098 150.412C127.658 150.625 127.077 150.776 126.352 150.864C125.157 151.007 123.954 150.975 122.742 150.769Z" fill="white"/>
<path d="M138.458 152.846C135.899 152.588 134.268 151.227 133.566 148.761C133.329 147.711 133.222 146.407 133.246 144.851C133.262 143.18 133.329 141.761 133.446 140.594C133.495 140.105 133.565 139.503 133.656 138.79C133.767 138.06 133.936 137.326 134.162 136.589C134.391 135.832 134.683 135.291 135.039 134.966C135.415 134.623 135.991 134.377 136.767 134.227C137.561 134.079 138.433 134.005 139.384 134.006C139.896 134.019 140.396 134.05 140.885 134.1C142.278 134.24 143.334 134.517 144.052 134.931C144.536 135.417 144.75 135.933 144.695 136.479C144.54 137.072 144.209 137.437 143.701 137.576C143.311 137.67 142.778 137.683 142.1 137.615C141.743 137.579 141.367 137.532 140.974 137.473C140.601 137.398 140.227 137.341 139.85 137.303C139.493 137.267 139.15 137.271 138.823 137.314C138.495 137.357 138.244 137.493 138.069 137.723C137.914 137.935 137.825 138.164 137.8 138.409L137.772 138.691C137.755 139.24 137.99 139.549 138.477 139.617C138.663 139.655 138.869 139.685 139.095 139.708L140.114 139.782C140.641 139.835 141.083 139.974 141.441 140.2C141.958 140.538 142.184 141.036 142.118 141.694C142.017 142.692 140.824 143.123 138.537 142.988C138.067 142.941 137.781 142.95 137.679 143.016C137.598 143.065 137.543 143.23 137.515 143.512C137.432 144.34 137.435 145.158 137.525 145.966C137.68 147.445 137.808 148.351 137.907 148.684C138.028 149.001 138.351 149.185 138.878 149.238C139.029 149.253 139.228 149.254 139.477 149.241C139.746 149.211 140.037 149.155 140.349 149.073C140.661 148.99 140.916 148.911 141.114 148.836C141.528 148.687 141.914 148.631 142.272 148.667C142.385 148.678 142.579 148.727 142.856 148.811C143.153 148.879 143.437 149.079 143.708 149.41C143.981 149.723 144.096 150.086 144.055 150.5C143.896 151.321 143.272 151.952 142.182 152.393C141.092 152.835 139.851 152.986 138.458 152.846Z" fill="white"/>
<path d="M153.537 153.355C153.367 153.35 153.093 153.342 152.715 153.332C152.337 153.321 151.746 153.135 150.942 152.772C150.158 152.39 149.502 151.833 148.974 151.099C148.61 150.578 148.436 150.034 148.452 149.467C148.46 149.183 148.534 148.901 148.674 148.622C148.994 148.006 149.607 147.711 150.515 147.736C151.139 147.754 151.791 148.112 152.472 148.812C153.004 149.395 153.516 149.693 154.008 149.707C154.273 149.695 154.531 149.589 154.783 149.388C154.958 149.222 155.048 149.035 155.054 148.828L155.056 148.742C154.963 148.021 154.199 147.252 152.765 146.436C149.206 144.464 147.455 142.438 147.513 140.359C147.52 140.113 147.558 139.754 147.628 139.283C147.698 138.812 147.989 138.224 148.5 137.519C149.031 136.815 149.7 136.238 150.507 135.787C151.333 135.337 152.239 135.069 153.226 134.983L153.481 134.99C154.407 135.016 155.301 135.211 156.161 135.576C157.04 135.922 157.802 136.416 158.447 137.058C159.459 138.071 159.948 139.191 159.914 140.42C159.904 140.798 159.846 141.156 159.742 141.494C159.473 142.338 158.866 142.746 157.92 142.72C156.899 142.692 156.292 142.079 156.098 140.881C155.931 140.082 155.588 139.505 155.068 139.15C154.567 138.795 154.09 138.612 153.636 138.599C153.125 138.604 152.684 138.79 152.315 139.158C152.02 139.547 151.869 139.884 151.861 140.167C151.842 140.829 152.305 141.533 153.25 142.278C153.769 142.652 154.159 142.899 154.421 143.02C156.058 144.012 157.273 144.916 158.063 145.733C159.002 146.686 159.455 147.758 159.421 148.949C159.392 149.989 158.989 150.895 158.21 151.668C157.042 152.847 155.485 153.409 153.537 153.355Z" fill="white"/>
<path d="M170.301 153.2C170.131 153.208 169.857 153.221 169.479 153.239C169.101 153.257 168.498 153.115 167.67 152.813C166.859 152.492 166.163 151.985 165.581 151.293C165.179 150.801 164.965 150.271 164.938 149.705C164.925 149.421 164.978 149.135 165.096 148.845C165.369 148.207 165.959 147.867 166.866 147.824C167.489 147.795 168.167 148.103 168.898 148.751C169.473 149.291 170.005 149.55 170.497 149.527C170.76 149.496 171.01 149.37 171.246 149.151C171.408 148.973 171.484 148.78 171.474 148.572L171.47 148.487C171.323 147.774 170.503 147.065 169.012 146.359C165.315 144.66 163.417 142.771 163.319 140.692C163.307 140.447 163.319 140.087 163.353 139.612C163.388 139.137 163.633 138.529 164.091 137.787C164.567 137.045 165.19 136.419 165.962 135.91C166.752 135.399 167.635 135.064 168.612 134.904L168.867 134.892C169.793 134.848 170.698 134.975 171.584 135.274C172.487 135.554 173.284 135.989 173.974 136.581C175.06 137.515 175.632 138.595 175.69 139.823C175.708 140.201 175.677 140.562 175.599 140.907C175.394 141.769 174.819 142.222 173.874 142.267C172.854 142.315 172.202 141.749 171.919 140.57C171.693 139.785 171.307 139.235 170.762 138.92C170.236 138.604 169.746 138.457 169.293 138.479C168.783 138.522 168.358 138.741 168.017 139.135C167.752 139.546 167.627 139.892 167.64 140.176C167.671 140.837 168.186 141.504 169.183 142.176C169.729 142.51 170.137 142.727 170.407 142.828C172.114 143.694 173.393 144.505 174.243 145.26C175.25 146.14 175.782 147.175 175.838 148.366C175.887 149.405 175.553 150.339 174.835 151.168C173.758 152.431 172.247 153.108 170.301 153.2Z" fill="white"/>
<path d="M187.177 148.308C187.196 148.306 187.28 148.295 187.431 148.277C187.578 148.239 187.764 148.044 187.986 147.692C188.481 146.772 188.614 145.259 188.388 143.152C188.275 142.251 188.119 141.394 187.922 140.58C187.74 139.745 187.552 139.083 187.357 138.592C186.977 137.687 186.486 137.272 185.885 137.348L185.604 137.383C185.435 137.404 185.179 137.646 184.837 138.108C183.987 139.378 183.696 141.083 183.965 143.222C184.033 143.766 184.165 144.36 184.36 145.002C184.698 146.18 185.121 147.042 185.628 147.588C186.136 148.134 186.652 148.374 187.177 148.308ZM187.563 151.834C185.78 152.058 184.208 151.608 182.847 150.482C181.849 149.674 181.09 148.559 180.568 147.137C180.173 146.12 179.878 144.832 179.682 143.274C179.503 141.848 179.638 140.42 180.087 138.991C180.441 137.86 181.02 136.854 181.824 135.971C182.358 135.37 183.055 134.92 183.913 134.622C184.258 134.483 184.619 134.323 184.996 134.143C185.39 133.941 185.784 133.815 186.179 133.765C186.441 133.732 186.813 133.733 187.294 133.768C188.223 133.88 189.248 134.523 190.367 135.698C191.487 136.872 192.238 138.98 192.62 142.02C192.892 144.178 192.804 146.057 192.357 147.657C191.676 150.126 190.078 151.518 187.563 151.834Z" fill="white"/>
<path d="M202.139 149.661L201.889 149.715C200.854 149.937 200.109 149.575 199.653 148.628C199.401 148.083 199.115 147.293 198.796 146.259C198.338 144.848 197.964 143.468 197.674 142.118C196.7 137.588 196.594 134.757 197.357 133.626C197.853 133.055 198.397 132.706 198.989 132.579L199.75 132.473C200.339 132.424 201.077 132.884 201.962 133.855C202.81 134.737 203.775 136.077 204.858 137.875C205.748 139.406 206.6 140.625 207.414 141.533C207.652 141.83 207.799 141.973 207.855 141.961C207.91 141.949 207.731 140.982 207.318 139.059C206.936 137.283 206.513 135.449 206.048 133.557L205.988 133.279C205.909 132.91 205.865 132.571 205.857 132.263C205.847 131.317 206.457 130.693 207.688 130.389C208.451 130.245 209.025 130.353 209.413 130.715C209.846 131.202 210.182 132.001 210.421 133.11L211.293 136.898L212.537 142.957C212.633 143.401 212.702 143.811 212.744 144.189C212.938 145.54 212.455 146.621 211.294 147.432C210.959 147.581 210.634 147.69 210.319 147.757C208.23 148.207 205.854 146.56 203.193 142.818C202.518 141.841 202.105 141.359 201.953 141.372C201.935 141.647 202.031 142.275 202.242 143.255C202.496 144.438 202.783 145.547 203.102 146.581C203.183 146.777 203.263 147.059 203.342 147.429C203.382 147.614 203.411 147.84 203.43 148.107C203.445 148.355 203.358 148.625 203.169 148.917C202.999 149.205 202.655 149.453 202.139 149.661Z" fill="white"/>
<path d="M73.6752 199.059C72.066 198.617 70.9493 198.101 70.325 197.509C69.1472 196.452 68.7285 194.396 69.0689 191.343C69.2537 189.716 69.701 187.61 70.4109 185.026C70.7926 183.636 71.2043 182.281 71.6457 180.96C71.7481 180.778 71.8428 180.529 71.9298 180.212L72.0239 179.726C72.2181 179.019 72.4266 178.356 72.6495 177.735C73.566 174.971 74.8775 173.824 76.5842 174.293C78.2178 174.741 78.7734 175.917 78.251 177.818C77.6793 179.995 77.1287 182.191 76.5991 184.405C76.447 185.15 76.247 185.973 75.9992 186.875C75.1755 189.874 74.7379 192.088 74.6865 193.516C74.7586 194.112 75.1848 194.518 75.965 194.732C76.3063 194.826 77.0036 194.913 78.0568 194.992C79.2075 195.098 79.9901 195.209 80.4046 195.322C81.453 195.61 82.1218 196.135 82.4109 196.896C82.5543 197.329 82.5724 197.74 82.4652 198.13C82.4317 198.252 82.3315 198.474 82.1646 198.795C82.0288 199.099 81.5626 199.364 80.7661 199.591C80.1737 199.743 79.3963 199.805 78.434 199.776C76.8462 199.733 75.26 199.494 73.6752 199.059Z" fill="white"/>
<path d="M88.9863 203.066L86.7637 202.578C86.1324 202.387 85.6352 202.058 85.272 201.59C84.9143 201.097 84.7923 200.592 84.9062 200.073C84.9984 199.653 85.302 199.332 85.817 199.108C86.4363 198.882 86.9929 198.823 87.4868 198.931C87.6898 198.95 87.8735 198.938 88.0379 198.897C88.2271 198.861 88.4057 198.46 88.5738 197.694C88.8251 196.196 89.0972 194.781 89.39 193.447C90.1113 190.162 90.7521 187.598 91.3124 185.754C91.563 185.084 91.7317 184.551 91.8185 184.156C91.8456 184.033 91.8604 183.906 91.8628 183.778C91.8899 183.654 91.7758 183.525 91.5204 183.392C90.3121 182.764 89.8083 181.993 90.009 181.08C90.112 180.61 90.4539 180.232 91.0345 179.946C91.8044 179.623 93.3127 179.592 95.5594 179.852C96.7171 180.003 97.5306 180.13 97.9998 180.233C99.3828 180.536 100.337 181.082 100.863 181.871C101.08 182.178 101.146 182.528 101.059 182.924C100.815 184.035 99.8014 184.524 98.0185 184.392C97.4203 184.286 97.0255 184.316 96.8339 184.481C96.6183 184.874 96.2339 186.329 95.6807 188.848C95.3933 190.157 94.9209 192.603 94.2634 196.187L93.6859 198.817C93.6533 198.965 93.6359 199.104 93.6334 199.233C93.631 199.361 93.94 199.546 94.5604 199.786C95.9855 200.487 96.5977 201.294 96.3971 202.208C96.2181 203.023 95.4597 203.53 94.1219 203.728C93.2581 203.771 91.5463 203.55 88.9863 203.066Z" fill="white"/>
<path d="M105.645 207.076C103.847 206.792 103.029 205.408 103.19 202.925C103.265 201.478 103.484 199.606 103.847 197.308C104.624 192.388 105.325 188.595 105.951 185.929C106.004 185.758 106.048 185.56 106.083 185.336C106.261 184.212 106.54 183.334 106.921 182.703C107.401 181.934 108.14 181.629 109.139 181.787C109.889 181.905 110.462 182.162 110.861 182.558C111.314 183.09 111.45 183.931 111.269 185.079L110.644 189.281C110.328 191.279 110.235 192.352 110.366 192.501C110.669 192.523 111.799 191.691 113.755 190.003C117.392 186.584 119.519 184.706 120.135 184.368C120.686 184.122 121.238 184.03 121.792 184.092C122.316 184.175 122.771 184.374 123.156 184.691C123.746 185.168 123.992 185.719 123.893 186.344C123.858 186.568 123.771 186.798 123.631 187.032C122.456 188.638 120.497 190.671 117.753 193.13C115.798 194.818 114.65 195.763 114.311 195.965C113.683 196.378 113.351 196.697 113.315 196.922C113.28 197.146 115.377 199.103 119.607 202.791C120.888 203.915 121.521 204.937 121.503 205.855C121.275 207.304 120.299 207.892 118.575 207.62C117.302 207.419 115.191 205.793 112.242 202.742C110.766 201.229 109.744 200.325 109.176 200.031C109.062 200.269 108.977 200.563 108.922 200.912C108.881 201.495 108.849 202.104 108.825 202.74C108.802 203.376 108.75 203.944 108.672 204.444C108.53 205.343 108.205 206.021 107.698 206.478C107.078 206.995 106.394 207.194 105.645 207.076Z" fill="white"/>
<path d="M134.987 210.592C131.563 210.28 129.366 208.48 128.396 205.192C128.067 203.791 127.908 202.05 127.921 199.97C127.921 197.735 127.993 195.838 128.135 194.277C128.195 193.622 128.281 192.817 128.394 191.863C128.533 190.885 128.75 189.902 129.043 188.913C129.339 187.899 129.723 187.173 130.194 186.733C130.694 186.271 131.461 185.935 132.495 185.725C133.555 185.517 134.72 185.407 135.991 185.396C136.675 185.408 137.345 185.443 138 185.503C139.863 185.673 141.277 186.031 142.243 186.576C142.896 187.219 143.188 187.906 143.122 188.636C142.922 189.431 142.484 189.924 141.806 190.116C141.286 190.246 140.573 190.27 139.667 190.187C139.188 190.144 138.686 190.085 138.16 190.012C137.661 189.915 137.159 189.844 136.656 189.798C136.177 189.755 135.719 189.764 135.282 189.825C134.845 189.887 134.511 190.072 134.279 190.381C134.076 190.667 133.959 190.974 133.929 191.301L133.894 191.679C133.878 192.414 134.196 192.824 134.849 192.909C135.098 192.957 135.374 192.995 135.676 193.022L137.039 193.108C137.744 193.173 138.337 193.354 138.818 193.652C139.513 194.096 139.821 194.759 139.741 195.64C139.619 196.974 138.029 197.566 134.971 197.414C134.341 197.356 133.959 197.372 133.824 197.461C133.716 197.528 133.645 197.75 133.611 198.128C133.51 199.235 133.524 200.328 133.654 201.407C133.88 203.382 134.062 204.592 134.199 205.036C134.364 205.458 134.799 205.7 135.504 205.765C135.705 205.783 135.972 205.782 136.304 205.761C136.663 205.718 137.051 205.639 137.468 205.525C137.885 205.411 138.225 205.302 138.488 205.199C139.04 204.995 139.555 204.915 140.033 204.959C140.184 204.973 140.445 205.035 140.816 205.145C141.214 205.232 141.596 205.495 141.963 205.935C142.331 206.349 142.49 206.834 142.439 207.388C142.238 208.486 141.411 209.338 139.96 209.941C138.508 210.545 136.851 210.762 134.987 210.592Z" fill="white"/>
<path d="M168.558 211.407L168.292 211.409C166.295 211.424 165.284 209.889 165.261 206.804L165.036 202.065C164.922 200.271 164.832 198.476 164.768 196.681L164.826 194.291C164.821 193.659 164.792 193.103 164.738 192.623C164.709 192.118 164.605 191.802 164.427 191.677C164.249 191.527 163.945 191.453 163.515 191.457C163.389 191.458 163.237 191.471 163.06 191.498C162.884 191.525 162.669 191.539 162.416 191.541C162.188 191.542 161.872 191.52 161.467 191.472C161.088 191.424 160.644 191.238 160.136 190.913C159.703 190.537 159.485 190.147 159.482 189.742C159.479 189.287 159.639 188.818 159.965 188.335C160.616 187.471 162.357 187.028 165.189 187.007L167.275 186.991C168.058 186.934 168.917 186.903 169.853 186.896L170.384 186.892C171.117 186.886 171.825 186.919 172.509 186.99C174.685 187.251 175.778 187.951 175.786 189.089C175.796 190.353 175.132 191.192 173.795 191.607C173.315 191.737 172.886 191.803 172.507 191.806C172.102 191.809 171.685 191.787 171.255 191.74C171.128 191.716 171.002 191.704 170.875 191.705C170.774 191.706 170.66 191.732 170.534 191.783C170.433 191.809 170.333 191.936 170.234 192.165C170.134 192.368 170.087 192.76 170.091 193.342C170.126 194.631 170.31 197.209 170.642 201.075C170.778 202.388 170.889 203.677 170.974 204.941C171.11 206.103 171.192 206.949 171.221 207.48C171.226 208.112 171.167 208.719 171.045 209.302C170.923 209.859 170.661 210.329 170.259 210.711C169.883 211.093 169.316 211.325 168.558 211.407Z" fill="white"/>
<path d="M196.187 210.057C195.159 209.878 194.397 209.503 193.898 208.931C193.425 208.358 193.14 207.402 193.042 206.066L193.009 205.612C192.977 205.183 192.935 204.781 192.882 204.404C192.829 204.028 192.741 203.692 192.618 203.397C192.495 203.102 192.228 202.919 191.817 202.847C191.457 202.772 191.062 202.75 190.634 202.782L190.369 202.801C189.335 202.877 188.434 203.032 187.665 203.266C187.294 203.394 187.129 203.736 187.17 204.291C187.197 204.669 187.279 205.094 187.415 205.566C187.631 206.437 187.753 207.062 187.781 207.44C187.853 208.424 187.619 209.214 187.08 209.811C186.585 210.329 186.036 210.61 185.43 210.655C184.497 210.723 183.622 210.369 182.805 209.592C182.16 208.752 181.527 206.175 180.907 201.859C180.519 199.327 180.225 196.712 180.028 194.014C179.695 189.475 179.912 186.899 180.678 186.285C181.108 185.924 181.638 185.72 182.269 185.674C182.798 185.635 183.326 185.748 183.853 186.014C184.228 186.291 184.504 186.6 184.681 186.942C184.882 187.257 185.009 187.602 185.062 187.979C185.138 188.328 185.191 188.705 185.22 189.108C185.352 190.898 185.521 192.686 185.727 194.471L185.827 195.833C185.846 196.085 185.871 196.425 185.902 196.854C185.959 197.281 186.091 197.702 186.299 198.118C186.507 198.534 186.814 198.752 187.222 198.773L188.132 198.744C189.973 198.609 191.08 198.49 191.452 198.387C191.85 198.281 192.114 198.072 192.243 197.758C192.395 197.418 192.459 196.906 192.435 196.223C192.303 190.275 192.664 186.902 193.519 186.104C193.921 185.72 194.463 185.503 195.144 185.453C196.859 185.327 197.789 186.26 197.935 188.252L197.942 188.86C197.929 190.078 197.942 191.281 197.978 192.47C198.04 193.657 198.08 194.897 198.098 196.188C198.174 198.946 198.25 200.855 198.328 201.914C198.402 202.922 198.548 204.053 198.766 205.304C198.959 206.203 199.074 206.904 199.111 207.409C199.145 208.572 198.397 209.426 196.865 209.969L196.187 210.057Z" fill="white"/>
<path d="M210.551 208.593L208.296 208.9C207.638 208.938 207.058 208.8 206.556 208.485C206.051 208.146 205.762 207.713 205.691 207.187C205.633 206.761 205.807 206.354 206.214 205.967C206.718 205.542 207.22 205.295 207.721 205.227C207.918 205.175 208.087 205.101 208.227 205.005C208.392 204.906 208.422 204.468 208.316 203.692C208.037 202.198 207.806 200.775 207.622 199.423C207.169 196.09 206.889 193.462 206.781 191.537C206.785 190.822 206.761 190.264 206.706 189.863C206.689 189.738 206.66 189.615 206.618 189.493C206.601 189.367 206.449 189.286 206.163 189.248C204.813 189.074 204.075 188.524 203.949 187.597C203.884 187.121 204.075 186.648 204.522 186.179C205.134 185.612 206.539 185.063 208.738 184.535C209.877 184.278 210.685 184.118 211.161 184.053C212.564 183.862 213.648 184.047 214.413 184.607C214.722 184.82 214.904 185.127 214.959 185.527C215.112 186.655 214.329 187.463 212.609 187.952C212.011 188.058 211.65 188.222 211.527 188.443C211.46 188.886 211.6 190.385 211.947 192.941C212.127 194.269 212.525 196.728 213.14 200.319L213.503 202.987C213.523 203.137 213.554 203.274 213.596 203.395C213.638 203.517 213.992 203.584 214.657 203.596C216.236 203.764 217.089 204.312 217.215 205.239C217.327 206.066 216.789 206.802 215.601 207.448C214.805 207.786 213.122 208.168 210.551 208.593Z" fill="white"/>
<path d="M231.195 205.061C230.972 205.105 230.612 205.174 230.115 205.27C229.619 205.366 228.793 205.293 227.64 205.053C226.506 204.782 225.488 204.245 224.586 203.44C223.96 202.866 223.575 202.206 223.431 201.462C223.359 201.089 223.374 200.7 223.476 200.294C223.715 199.398 224.431 198.835 225.622 198.605C226.442 198.447 227.397 198.726 228.488 199.442C229.352 200.048 230.106 200.289 230.752 200.164C231.094 200.072 231.401 199.859 231.671 199.523C231.851 199.257 231.915 198.987 231.862 198.714L231.841 198.602C231.51 197.687 230.29 196.906 228.182 196.257C222.966 194.714 220.094 192.578 219.567 189.847C219.504 189.524 219.451 189.045 219.405 188.41C219.36 187.775 219.569 186.924 220.032 185.856C220.52 184.783 221.226 183.836 222.149 183.014C223.096 182.187 224.201 181.575 225.464 181.176L225.799 181.112C227.015 180.877 228.238 180.873 229.466 181.099C230.714 181.296 231.852 181.72 232.879 182.371C234.494 183.399 235.457 184.719 235.768 186.333C235.864 186.829 235.893 187.313 235.855 187.784C235.748 188.963 235.074 189.673 233.833 189.913C232.492 190.171 231.522 189.548 230.922 188.041C230.472 187.046 229.857 186.393 229.076 186.08C228.319 185.762 227.643 185.661 227.047 185.776C226.381 185.931 225.861 186.301 225.485 186.889C225.213 187.482 225.113 187.965 225.185 188.337C225.353 189.206 226.161 189.99 227.609 190.689C228.395 191.027 228.977 191.236 229.353 191.318C231.777 192.138 233.624 192.966 234.893 193.802C236.394 194.775 237.295 196.043 237.597 197.607C237.861 198.972 237.597 200.272 236.805 201.506C235.622 203.383 233.752 204.568 231.195 205.061Z" fill="white"/>
<path d="M111.977 175.665C110.642 175.45 109.698 175.132 109.143 174.71C108.102 173.962 107.585 172.343 107.592 169.854C107.599 168.528 107.775 166.792 108.121 164.649C108.307 163.496 108.52 162.369 108.76 161.266C108.826 161.111 108.881 160.902 108.923 160.639L108.956 160.24C109.051 159.654 109.161 159.101 109.286 158.582C109.783 156.276 110.739 155.237 112.154 155.465C113.509 155.684 114.059 156.582 113.805 158.159C113.535 159.962 113.283 161.778 113.05 163.608C112.993 164.221 112.904 164.902 112.783 165.65C112.382 168.137 112.223 169.958 112.307 171.113C112.417 171.587 112.795 171.876 113.443 171.981C113.726 172.026 114.295 172.035 115.15 172.007C116.086 171.992 116.726 172.012 117.07 172.068C117.939 172.208 118.524 172.572 118.823 173.16C118.976 173.496 119.027 173.825 118.975 174.149C118.958 174.25 118.897 174.437 118.791 174.711C118.708 174.967 118.356 175.221 117.734 175.474C117.27 175.648 116.65 175.766 115.872 175.827C114.59 175.931 113.291 175.877 111.977 175.665Z" fill="white"/>
<path d="M129.281 174.415C129.301 174.417 129.393 174.429 129.555 174.45C129.72 174.451 129.967 174.297 130.296 173.988C131.064 173.158 131.615 171.608 131.949 169.338C132.075 168.362 132.145 167.421 132.158 166.515C132.195 165.59 132.178 164.844 132.106 164.277C131.953 163.225 131.551 162.657 130.901 162.573L130.596 162.534C130.413 162.51 130.08 162.694 129.596 163.086C128.359 164.187 127.592 165.895 127.293 168.21C127.217 168.8 127.194 169.458 127.224 170.184C127.26 171.511 127.469 172.529 127.853 173.239C128.236 173.95 128.712 174.341 129.281 174.415ZM128.729 178.216C126.799 177.967 125.273 177.068 124.151 175.519C123.325 174.4 122.831 173.025 122.669 171.394C122.532 170.219 122.572 168.789 122.789 167.103C122.988 165.559 123.517 164.099 124.376 162.723C125.054 161.633 125.934 160.735 127.016 160.027C127.74 159.542 128.592 159.26 129.573 159.18C129.972 159.128 130.394 159.059 130.839 158.971C131.307 158.867 131.754 158.842 132.18 158.897C132.465 158.933 132.854 159.035 133.349 159.202C134.293 159.572 135.192 160.524 136.048 162.059C136.903 163.595 137.118 166.008 136.694 169.299C136.393 171.635 135.791 173.581 134.888 175.138C133.504 177.541 131.451 178.567 128.729 178.216Z" fill="white"/>
<path d="M148.323 176.538C148.343 176.54 148.435 176.549 148.598 176.564C148.763 176.559 149.004 176.396 149.322 176.076C150.061 175.22 150.558 173.652 150.813 171.371C150.905 170.392 150.942 169.45 150.924 168.543C150.928 167.617 150.885 166.873 150.794 166.309C150.604 165.262 150.183 164.708 149.53 164.647L149.224 164.619C149.04 164.601 148.714 164.797 148.243 165.206C147.046 166.348 146.338 168.082 146.12 170.407C146.065 170.998 146.065 171.657 146.12 172.382C146.202 173.706 146.446 174.717 146.854 175.413C147.262 176.11 147.752 176.485 148.323 176.538ZM147.903 180.356C145.966 180.175 144.409 179.329 143.234 177.82C142.369 176.731 141.828 175.374 141.61 173.749C141.432 172.58 141.422 171.149 141.58 169.457C141.726 167.907 142.204 166.429 143.014 165.024C143.653 163.911 144.502 162.983 145.559 162.238C146.265 161.728 147.107 161.417 148.085 161.302C148.482 161.237 148.901 161.153 149.343 161.05C149.807 160.929 150.253 160.889 150.681 160.929C150.966 160.955 151.359 161.044 151.86 161.193C152.815 161.53 153.748 162.451 154.656 163.955C155.564 165.46 155.863 167.864 155.553 171.168C155.333 173.513 154.799 175.479 153.951 177.066C152.652 179.516 150.636 180.612 147.903 180.356Z" fill="white"/>
<path d="M163.398 182.166C161.926 182.081 161.156 181.031 161.088 179.016C161.033 177.844 161.06 176.317 161.169 174.435C161.403 170.407 161.666 167.293 161.957 165.095C161.986 164.953 162.006 164.79 162.016 164.606C162.07 163.685 162.225 162.956 162.482 162.417C162.807 161.758 163.379 161.453 164.197 161.501C164.81 161.536 165.293 161.698 165.646 161.985C166.054 162.378 166.231 163.044 166.176 163.985L166.008 167.422C165.913 169.058 165.924 169.931 166.041 170.04C166.287 170.034 167.131 169.272 168.574 167.756C171.233 164.709 172.798 163.025 173.268 162.704C173.692 162.462 174.13 162.343 174.581 162.349C175.01 162.374 175.393 162.499 175.728 162.723C176.242 163.061 176.484 163.485 176.455 163.997C176.444 164.181 176.392 164.372 176.298 164.572C175.479 165.961 174.062 167.756 172.047 169.958C170.605 171.474 169.755 172.328 169.498 172.518C169.024 172.901 168.782 173.184 168.771 173.368C168.761 173.552 170.607 174.962 174.312 177.598C175.435 178.402 176.026 179.175 176.085 179.917C176.017 181.103 175.277 181.655 173.866 181.573C172.823 181.513 170.991 180.37 168.371 178.146C167.06 177.044 166.164 176.397 165.683 176.205C165.61 176.406 165.565 176.65 165.548 176.936C165.562 177.409 165.585 177.902 165.616 178.417C165.648 178.932 165.652 179.394 165.628 179.803C165.585 180.539 165.378 181.112 165.005 181.521C164.547 181.987 164.012 182.202 163.398 182.166Z" fill="white"/>
<path d="M186.689 182.516C186.505 182.512 186.208 182.505 185.799 182.495C185.389 182.485 184.748 182.286 183.877 181.897C183.026 181.487 182.313 180.887 181.737 180.094C181.341 179.532 181.15 178.944 181.164 178.329C181.171 178.022 181.25 177.717 181.401 177.413C181.744 176.745 182.407 176.422 183.39 176.445C184.066 176.461 184.774 176.847 185.514 177.602C186.094 178.23 186.65 178.551 187.182 178.563C187.469 178.549 187.749 178.433 188.02 178.214C188.209 178.034 188.306 177.832 188.311 177.606L188.313 177.514C188.209 176.733 187.378 175.904 185.821 175.028C181.958 172.908 180.052 170.722 180.105 168.47C180.112 168.204 180.152 167.815 180.225 167.305C180.299 166.794 180.611 166.156 181.161 165.391C181.733 164.626 182.454 163.997 183.326 163.505C184.219 163.014 185.199 162.72 186.267 162.622L186.543 162.629C187.547 162.652 188.515 162.859 189.448 163.25C190.402 163.621 191.23 164.153 191.931 164.845C193.032 165.937 193.567 167.148 193.535 168.479C193.526 168.888 193.465 169.276 193.354 169.642C193.066 170.558 192.411 171.003 191.387 170.979C190.281 170.953 189.62 170.292 189.405 168.996C189.221 168.131 188.846 167.508 188.281 167.126C187.737 166.744 187.219 166.548 186.728 166.536C186.174 166.543 185.698 166.747 185.3 167.148C184.982 167.57 184.82 167.935 184.813 168.243C184.796 168.959 185.301 169.719 186.327 170.522C186.891 170.924 187.315 171.19 187.599 171.32C189.376 172.386 190.696 173.36 191.556 174.241C192.576 175.269 193.072 176.428 193.041 177.718C193.015 178.844 192.582 179.827 191.742 180.668C190.483 181.95 188.799 182.566 186.689 182.516Z" fill="white"/>
</g>
<defs>
<clipPath id="clip0">
<rect width="239" height="211" fill="white"/>
</clipPath>
</defs>
</svg>
