<svg width="238" height="123" viewBox="0 0 238 123" fill="none" xmlns="http://www.w3.org/2000/svg">
<g clip-path="url(#clip0)">
<path d="M6.90509 23.1768C7.34199 23.0437 8.02474 22.7164 8.95337 22.1949C9.87459 21.649 10.4645 21.1909 10.7229 20.8204C10.9983 20.4183 11.014 19.8167 10.7701 19.0157C10.5557 18.3118 10.1851 17.4433 9.65824 16.4102C9.14828 15.3455 8.56027 14.5034 7.89421 13.884C7.7211 13.7511 7.5496 13.7105 7.37969 13.7622C6.9428 13.8953 6.5688 14.5397 6.2577 15.6954C5.9392 16.8268 5.768 18.3112 5.7441 20.1486C5.68841 21.3591 5.73449 22.2071 5.88234 22.6926C6.03019 23.178 6.3711 23.3394 6.90509 23.1768ZM18.9672 35.2182C17.8507 35.5583 16.8908 35.2804 16.0875 34.3845C15.6694 33.7957 15.246 32.7974 14.8173 31.3896C14.5659 30.5644 14.3933 29.9539 14.2992 29.5582C14.1978 29.1381 14.0854 28.6817 13.9618 28.1889C13.8213 27.7277 13.6714 27.3225 13.5119 26.9732C13.3694 26.5922 13.2105 26.3754 13.0353 26.3226C12.8844 26.2625 12.6754 26.2731 12.4084 26.3544C12.2628 26.3988 12.0116 26.4885 11.655 26.6237C11.3225 26.7515 10.8508 26.988 10.2398 27.3332C9.62146 27.6541 9.08224 28.0173 8.62218 28.4227C8.179 28.7964 7.94108 29.1473 7.90843 29.4755C7.90005 29.7964 7.93652 30.0903 8.01784 30.3573C8.18048 30.8913 8.65501 31.622 9.44145 32.5495C10.2205 33.4528 10.7024 34.2078 10.8872 34.8146C10.9316 34.9602 10.9812 35.2103 11.0362 35.5649C11.0838 35.8952 10.9593 36.3575 10.6629 36.9518C10.2957 37.488 9.88155 37.8263 9.42038 37.9667C8.81358 38.1516 8.18879 38.1031 7.54601 37.8215C5.03823 36.7286 2.8418 33.0875 0.956716 26.8981C0.618756 25.7014 0.360451 24.3743 0.1818 22.9169C0.00314842 21.4595 -0.0541425 19.9651 0.00992657 18.4337C0.0982672 16.895 0.341234 15.4285 0.738828 14.0343C1.16069 12.6327 1.79472 11.4051 2.64092 10.3517C3.50399 9.26661 4.6125 8.46483 5.96643 7.94637C8.29236 7.39711 10.4244 8.127 12.3624 10.136C13.9353 11.9911 15.5037 15.0941 17.0676 19.445C17.8078 21.5271 18.6252 24.0366 19.5196 26.9736C19.8745 28.1386 20.1987 29.2467 20.4923 30.2978L20.9359 31.7541C21.126 32.4654 21.0812 33.1023 20.8017 33.6649C20.4282 34.4417 19.8168 34.9595 18.9672 35.2182Z" fill="white"/>
<path d="M49.451 27.8608C49.4012 27.8703 49.1893 27.9106 48.8155 27.9819C48.4369 28.0282 47.9081 27.8965 47.2292 27.5868C45.5342 26.8249 43.7478 25.1765 41.8699 22.6414C41.2503 21.8297 40.823 21.2137 40.588 20.7936C40.1464 20.1028 39.8508 19.7717 39.7013 19.8002L39.4912 19.9177C39.2906 20.0851 39.1263 20.9171 38.9983 22.4138C38.9069 23.1544 38.7954 23.9247 38.6637 24.7247C38.3731 26.5881 37.8854 27.9596 37.2006 28.8392C36.6523 29.4861 35.9171 29.8974 34.9949 30.0731C34.0228 30.2583 33.1606 30.1385 32.408 29.7137C30.4923 28.6065 28.853 26.3747 27.4902 23.0182C26.6141 20.8605 25.7712 18.0637 24.9615 14.6277C24.6908 13.7494 24.4699 12.8617 24.299 11.9644C23.7908 9.29749 24.4215 7.79543 26.1911 7.45821C27.8361 7.14474 28.9079 8.02533 29.4066 10.1C31.343 17.144 32.6037 20.7782 33.1889 21.0024C33.6351 20.6333 33.9822 18.8624 34.23 15.6898C34.4245 13.9997 34.7591 12.7736 35.2338 12.0116C35.8604 10.9623 36.6971 10.338 37.7439 10.1385C39.2192 9.88317 40.3972 10.3044 41.278 11.4022C41.5189 11.7179 42.5167 13.3617 44.2711 16.3335C45.438 18.255 46.1858 19.1973 46.5146 19.1605C46.8575 18.6561 46.7417 16.8959 46.167 13.8801C45.9485 12.7335 45.6998 11.6315 45.4208 10.574C45.1667 9.51179 44.9375 8.44479 44.7333 7.37305C44.5481 6.401 44.5913 5.47581 44.863 4.59749C45.181 3.55538 45.8884 2.92983 46.985 2.72085C47.7874 2.59379 48.4954 2.71717 49.109 3.09099C49.7179 3.43989 50.1245 4.15021 50.3287 5.22195C50.4688 6.22843 50.6214 7.23252 50.7865 8.23424C51.5227 12.0975 52.019 14.9733 52.2756 16.8616C53.2207 21.8216 52.9219 25.133 51.3791 26.796C50.7667 27.3776 50.124 27.7325 49.451 27.8608Z" fill="white"/>
<path d="M70.1924 25.8966C66.755 26.199 64.2643 24.8134 62.7204 21.7399C62.1454 20.415 61.6783 18.7241 61.3191 16.6671C60.9213 14.4606 60.6534 12.5739 60.5156 11.0068C60.4578 10.3497 60.3993 9.53975 60.3401 8.57706C60.3039 7.58688 60.3425 6.57739 60.4558 5.5486C60.5668 4.49453 60.8161 3.70848 61.2035 3.19046C61.614 2.64494 62.3114 2.17607 63.2957 1.78384C64.3054 1.38939 65.4365 1.0734 66.6891 0.835866C67.3671 0.725292 68.0347 0.641104 68.6918 0.583303C70.5622 0.418793 72.0229 0.519552 73.0739 0.885583C73.8328 1.40467 74.2444 2.0307 74.3089 2.76368C74.2537 3.5836 73.9086 4.14884 73.2737 4.4594C72.7837 4.68079 72.0838 4.8315 71.1739 4.91153C70.6936 4.95377 70.187 4.98559 69.654 5.007C69.1441 5.00091 68.6363 5.0201 68.1308 5.06456C67.6506 5.1068 67.2001 5.19737 66.7793 5.33626C66.3585 5.47516 66.0615 5.71778 65.8882 6.06415C65.7379 6.38301 65.6773 6.70673 65.7062 7.03531L65.7395 7.41444C65.8545 8.14298 66.2417 8.49098 66.9011 8.45845C67.1561 8.4615 67.4352 8.44968 67.7385 8.42301L69.1001 8.26504C69.8078 8.2028 70.4255 8.27582 70.9532 8.48411C71.7195 8.79877 72.1416 9.39841 72.2194 10.283C72.3373 11.6226 70.8726 12.4901 67.8254 12.8855C67.1935 12.9411 66.8188 13.025 66.7013 13.1372C66.6069 13.2219 66.5764 13.4538 66.6097 13.833C66.7075 14.9451 66.9169 16.0219 67.2377 17.0634C67.8133 18.9741 68.2084 20.1364 68.4232 20.5506C68.6609 20.9372 69.1337 21.0994 69.8414 21.0371C70.0436 21.0193 70.3067 20.9707 70.6309 20.8913C70.9781 20.7843 71.3472 20.6372 71.7382 20.45C72.1293 20.2628 72.4457 20.0949 72.6873 19.9463C73.1959 19.6468 73.6902 19.476 74.1705 19.4337C74.3221 19.4204 74.5908 19.435 74.9766 19.4775C75.3855 19.4924 75.8099 19.6843 76.2499 20.0532C76.6876 20.3967 76.931 20.8465 76.9799 21.4026C76.9766 22.5236 76.3121 23.5117 74.9864 24.367C73.6608 25.2222 72.0628 25.7321 70.1924 25.8966Z" fill="white"/>
<path d="M89.8137 24.418C89.5854 24.4201 89.2175 24.4236 88.71 24.4284C88.2026 24.4331 87.4013 24.2123 86.306 23.7659C85.2358 23.2938 84.3283 22.5792 83.5835 21.622C83.0696 20.9417 82.8091 20.221 82.802 19.4599C82.7984 19.0793 82.8836 18.6979 83.0576 18.3156C83.4557 17.4745 84.2637 17.0483 85.4815 17.0368C86.3188 17.029 87.2111 17.4773 88.1584 18.3819C88.9013 19.1361 89.6026 19.5101 90.2623 19.5039C90.6173 19.4752 90.9584 19.3197 91.2856 19.0376C91.5118 18.8071 91.6236 18.5523 91.6209 18.2732L91.6199 18.159C91.4586 17.1963 90.3962 16.204 88.4328 15.1822C83.5632 12.7159 81.1153 10.0874 81.0891 7.29647C81.086 6.96664 81.1195 6.48422 81.1896 5.84921C81.2598 5.2142 81.6202 4.41153 82.2708 3.44121C82.9467 2.47064 83.8145 1.6632 84.8742 1.01889C85.9592 0.374345 87.1607 -0.0302469 88.4786 -0.19488L88.8211 -0.1981C90.0643 -0.209787 91.2716 0.00723072 92.443 0.45295C93.6395 0.873058 94.6857 1.49757 95.5816 2.32649C96.9894 3.6327 97.7011 5.11039 97.7166 6.75955C97.7214 7.26698 97.6625 7.74964 97.5399 8.20752C97.2208 9.35235 96.427 9.93073 95.1584 9.94265C93.7883 9.95553 92.9436 9.16419 92.6241 7.56864C92.3603 6.50541 91.8711 5.74879 91.1564 5.29878C90.4671 4.84853 89.818 4.62627 89.209 4.63199C88.5242 4.6638 87.9432 4.93569 87.4659 5.44766C87.0903 5.98404 86.9043 6.44252 86.9079 6.82309C86.9163 7.7111 87.572 8.63109 88.875 9.58305C89.5899 10.0584 90.1257 10.3706 90.4823 10.5195C92.727 11.7671 94.3998 12.9185 95.5008 13.9739C96.8064 15.2049 97.4668 16.6197 97.4818 18.2181C97.4949 19.6135 96.9991 20.8488 95.9942 21.924C94.4872 23.5621 92.427 24.3934 89.8137 24.418Z" fill="white"/>
<path d="M112.888 20.556C112.913 20.5579 113.027 20.5665 113.23 20.5816C113.434 20.5715 113.729 20.3646 114.116 19.961C115.011 18.883 115.59 16.929 115.852 14.099C115.943 12.8845 115.967 11.7158 115.924 10.5931C115.908 9.44692 115.837 8.52562 115.711 7.82921C115.452 6.53759 114.917 5.86147 114.107 5.80085L113.728 5.77243C113.5 5.75538 113.1 6.00529 112.527 6.52215C111.07 7.96517 110.234 10.1289 110.018 13.0133C109.963 13.7471 109.978 14.5624 110.064 15.4594C110.196 17.0976 110.522 18.3434 111.044 19.1966C111.565 20.0499 112.18 20.503 112.888 20.556ZM112.457 25.2945C110.053 25.1145 108.106 24.1037 106.616 22.2619C105.519 20.933 104.817 19.2648 104.51 17.2571C104.262 15.8137 104.216 14.042 104.373 11.9419C104.517 10.0189 105.075 8.17785 106.046 6.41862C106.812 5.02565 107.841 3.85595 109.133 2.9095C109.996 2.26166 111.031 1.85575 112.24 1.69176C112.73 1.60125 113.247 1.48732 113.792 1.34999C114.364 1.18925 114.915 1.12877 115.447 1.16856C115.801 1.19508 116.289 1.29527 116.913 1.46914C118.104 1.8637 119.28 2.9822 120.44 4.82465C121.599 6.6671 122.026 9.63779 121.719 13.7367C121.501 16.6464 120.885 19.0938 119.872 21.0789C118.319 24.1431 115.848 25.5483 112.457 25.2945Z" fill="white"/>
<path d="M131.351 27.9198C129.626 27.6211 128.779 26.3414 128.81 24.0807C128.913 21.7037 129.241 18.9151 129.795 15.715C130.319 12.6899 130.902 10.2158 131.544 8.29268C131.927 6.9686 132.376 5.93901 132.89 5.20391C133.551 4.21112 134.494 3.82077 135.719 4.03286C136.669 4.19735 137.442 4.6402 138.038 5.36142C138.853 6.45526 139.456 8.02748 139.848 10.0781C140.176 11.6027 140.535 12.6561 140.923 13.2384C142.656 9.62437 144.164 7.3104 145.447 6.29649C146.277 5.66766 147.179 5.43765 148.154 5.60646C148.804 5.719 149.403 5.97722 149.951 6.38112C150.956 7.12159 151.376 8.34018 151.211 10.0369C150.923 14.0813 150.689 16.6932 150.511 17.8725C150.248 19.8356 150.116 21.6409 150.114 23.2886C150.059 25.3906 149.975 26.7667 149.863 27.4167C149.668 28.5417 149.192 29.2833 148.435 29.6415C147.82 29.9212 147.175 30.0027 146.5 29.8858L145.9 29.7819C145.525 29.717 145.101 29.4119 144.629 28.8667C143.896 28.0445 143.817 25.3785 144.392 20.8687L144.659 19.0997L144.574 18.6987C144.449 18.677 144.134 19.0859 143.628 19.9254C143.35 20.3408 143.066 20.7165 142.776 21.0525C142.113 21.7617 141.056 21.9907 139.606 21.7396C138.848 21.5055 138.27 21.1994 137.872 20.8215C137.234 20.1959 136.76 19.2899 136.45 18.1032C136.11 17.0916 135.827 16.4245 135.599 16.1019C135.329 17.214 135.097 18.3325 134.902 19.4576C134.56 21.4326 134.283 23.7022 134.071 26.2662C133.972 26.8412 133.664 27.2773 133.149 27.5744C132.659 27.8758 132.06 27.991 131.351 27.9198Z" fill="white"/>
<path d="M163.745 34.549C160.412 33.6541 158.548 31.4984 158.151 28.0818C158.066 26.6401 158.207 24.8915 158.575 22.8361C158.958 20.627 159.353 18.7628 159.761 17.2435C159.932 16.6064 160.155 15.8255 160.43 14.9009C160.735 13.9584 161.118 13.0234 161.577 12.0958C162.043 11.1438 162.547 10.4909 163.088 10.1372C163.661 9.76551 164.477 9.56426 165.536 9.53341C166.62 9.50913 167.79 9.60024 169.049 9.80672C169.723 9.93538 170.379 10.0852 171.017 10.2563C172.83 10.7433 174.167 11.3389 175.029 12.0432C175.564 12.791 175.736 13.5203 175.545 14.2309C175.212 14.9821 174.694 15.3947 173.991 15.4687C173.455 15.5086 172.746 15.4102 171.864 15.1733C171.398 15.0483 170.911 14.9044 170.403 14.7417C169.926 14.5611 169.443 14.405 168.953 14.2734C168.487 14.1484 168.033 14.0789 167.59 14.0651C167.147 14.0513 166.785 14.1773 166.503 14.4432C166.253 14.6912 166.085 14.9745 165.999 15.2931L165.9 15.6606C165.759 16.3844 166.003 16.8441 166.634 17.0397C166.872 17.13 167.138 17.2146 167.432 17.2936L168.765 17.6122C169.452 17.7964 170.007 18.0769 170.431 18.4535C171.043 19.0119 171.234 19.7199 171.004 20.5776C170.655 21.8764 168.981 22.1889 165.983 21.5152C165.371 21.3507 164.99 21.301 164.841 21.3661C164.723 21.4133 164.615 21.6207 164.517 21.9883C164.227 23.0665 164.054 24.1498 163.999 25.2382C163.884 27.2304 163.856 28.4578 163.916 28.9204C164.007 29.3651 164.395 29.6796 165.081 29.8639C165.278 29.9165 165.541 29.9611 165.873 29.9976C166.236 30.0162 166.633 30.0047 167.065 29.9629C167.496 29.9212 167.851 29.8719 168.129 29.8152C168.709 29.7083 169.232 29.7174 169.698 29.8424C169.845 29.8819 170.092 29.9878 170.44 30.16C170.819 30.3143 171.152 30.6401 171.439 31.1375C171.732 31.6103 171.806 32.1163 171.662 32.6554C171.274 33.7073 170.311 34.4076 168.772 34.7563C167.234 35.1051 165.558 35.036 163.745 34.549Z" fill="white"/>
<path d="M34.3428 56.3405L34.1593 56.4003C32.7782 56.8501 31.7404 56.0086 31.0457 53.8758L29.847 50.6407C29.3728 49.4223 28.9161 48.1981 28.4768 46.9683L27.9912 45.2992C27.8489 44.8622 27.7061 44.4832 27.563 44.1625C27.4316 43.8185 27.2905 43.6228 27.1396 43.5752C26.9831 43.5102 26.7563 43.5261 26.4591 43.6229C26.3717 43.6514 26.2696 43.6943 26.1529 43.7516C26.0362 43.8089 25.8905 43.8661 25.7157 43.923C25.5583 43.9743 25.3341 44.028 25.043 44.0841C24.7694 44.1345 24.4208 44.1031 23.9971 43.9897C23.6145 43.8243 23.3777 43.6017 23.2866 43.322C23.1841 43.0073 23.1924 42.6469 23.3115 42.2407C23.5724 41.4983 24.6818 40.8082 26.6398 40.1705L28.082 39.7007C28.6126 39.4893 29.2013 39.2782 29.8481 39.0675L30.2152 38.9479C30.7222 38.7828 31.2202 38.6496 31.7093 38.5483C33.2754 38.2509 34.1865 38.4956 34.4428 39.2823C34.7275 40.1564 34.4521 40.8842 33.6167 41.4656C33.313 41.6612 33.03 41.8017 32.7678 41.8871C32.4881 41.9782 32.1939 42.0547 31.8854 42.1165C31.7923 42.1275 31.702 42.1473 31.6146 42.1757C31.5447 42.1985 31.4717 42.2416 31.3957 42.305C31.3314 42.3453 31.29 42.4555 31.2713 42.6356C31.2469 42.7982 31.3002 43.0806 31.4312 43.4827C31.739 44.3685 32.4335 46.1147 33.5144 48.7211C33.8979 49.6017 34.2582 50.4705 34.5954 51.3275C34.9447 52.1032 35.1879 52.6717 35.3249 53.0331C35.4673 53.4702 35.5602 53.904 35.6038 54.3345C35.6416 54.7476 35.5634 55.1308 35.3691 55.4841C35.1923 55.8318 34.8502 56.1172 34.3428 56.3405Z" fill="white"/>
<path d="M48.5637 52.6958C46.1365 53.2965 44.1985 52.5828 42.7496 50.5549C42.1898 49.6707 41.6664 48.5123 41.1792 47.0797C40.6478 45.5445 40.2451 44.2236 39.9713 43.1171C39.8564 42.653 39.724 42.0797 39.574 41.3971C39.4375 40.6922 39.3522 39.9652 39.3183 39.216C39.28 38.4489 39.3706 37.8583 39.5901 37.4441C39.823 37.0076 40.2699 36.594 40.9308 36.2031C41.6095 35.8079 42.384 35.4552 43.2543 35.1451C43.7274 34.9902 44.1959 34.8553 44.6599 34.7404C45.9806 34.4136 47.0377 34.3224 47.8311 34.467C48.4324 34.7538 48.7971 35.156 48.9252 35.6736C48.9773 36.2668 48.7934 36.7101 48.3735 37.0034C48.0475 37.2166 47.5632 37.4028 46.9207 37.5618C46.5816 37.6457 46.2225 37.7251 45.8433 37.8C45.4775 37.8527 45.1161 37.9232 44.7592 38.0115C44.4201 38.0954 44.1077 38.2106 43.8219 38.3571C43.5362 38.5036 43.3507 38.7105 43.2653 38.9778C43.1934 39.2229 43.1861 39.4615 43.2435 39.6935L43.3098 39.9612C43.4736 40.4699 43.7897 40.6758 44.2581 40.5788C44.441 40.5525 44.6396 40.5128 44.8537 40.4598L45.8109 40.1945C46.3106 40.0709 46.761 40.0541 47.1621 40.1442C47.7459 40.2839 48.1151 40.666 48.2697 41.2906C48.5038 42.2366 47.5522 43.0213 45.4147 43.645C44.9685 43.7554 44.7097 43.8574 44.6381 43.9509C44.58 44.0221 44.584 44.1915 44.6503 44.4592C44.8446 45.2445 45.1148 45.9921 45.461 46.7019C46.0866 48.0055 46.4995 48.7935 46.6995 49.066C46.9129 49.3162 47.2695 49.3795 47.7693 49.2558C47.912 49.2205 48.095 49.1563 48.3182 49.0632C48.5548 48.9478 48.8026 48.8012 49.0617 48.6235C49.3207 48.4457 49.5285 48.2901 49.6849 48.1567C50.0155 47.8855 50.3503 47.7079 50.6894 47.624C50.7965 47.5975 50.9905 47.5779 51.2715 47.5652C51.5659 47.5302 51.8912 47.6202 52.2474 47.835C52.5992 48.0321 52.8237 48.3269 52.9209 48.7196C53.0439 49.5225 52.6786 50.3042 51.8251 51.0647C50.9716 51.8252 49.8844 52.3689 48.5637 52.6958Z" fill="white"/>
<path d="M59.9556 40.931C60.2824 40.8784 60.8076 40.7286 61.5313 40.4816C62.2522 40.2165 62.7265 39.9818 62.9543 39.7775C63.1973 39.5521 63.2808 39.2034 63.2048 38.7315C63.1346 38.2958 62.9742 37.763 62.7237 37.1329C62.4885 36.4818 62.1709 35.9557 61.7711 35.5545C61.6628 35.4602 61.5451 35.4233 61.418 35.4438C61.0913 35.4964 60.7478 35.8497 60.3876 36.5037C60.0274 37.1577 59.7295 38.0251 59.494 39.1059C59.3088 39.8061 59.2411 40.3106 59.2908 40.6191C59.3347 40.8914 59.5563 40.9954 59.9556 40.931ZM67.1044 48.7182C66.2694 48.8527 65.6207 48.6407 65.1583 48.082C64.9305 47.709 64.748 47.0959 64.6105 46.2428C64.5286 45.7345 64.4777 45.361 64.4579 45.1221C64.438 44.8832 64.4138 44.617 64.3851 44.3237C64.3383 44.0333 64.2792 43.7821 64.2078 43.5701C64.1517 43.3371 64.0647 43.2021 63.947 43.1652C63.8475 43.1253 63.6979 43.1215 63.4982 43.1537C63.3893 43.1712 63.2002 43.211 62.9309 43.273C62.6767 43.314 62.3119 43.4193 61.8365 43.589C61.3581 43.7406 60.9309 43.9212 60.555 44.1307C60.1943 44.3192 59.9831 44.5115 59.9216 44.7076C59.8783 44.9009 59.8697 45.0791 59.8961 45.2425C59.9458 45.5511 60.1957 46.0043 60.6459 46.6022C61.0931 47.1819 61.346 47.6533 61.4045 48.0164C61.4191 48.1071 61.4244 48.2553 61.4202 48.4608C61.4161 48.6663 61.2726 48.9315 60.9897 49.2564C60.6676 49.569 60.3342 49.7531 59.9893 49.8087C59.5355 49.8818 59.0961 49.8129 58.671 49.6021C57.0159 48.8073 55.8856 46.5311 55.2802 42.7738C55.1843 42.0629 55.1599 41.2754 55.2069 40.4112C55.2509 39.5288 55.3872 38.6409 55.6157 37.7474C55.8624 36.851 56.21 36.0035 56.6586 35.205C57.1254 34.4035 57.7231 33.7206 58.4516 33.1562C59.1953 32.5708 60.0801 32.1676 61.1059 31.9464C62.8239 31.7441 64.2536 32.2959 65.3952 33.6018C66.2955 34.7976 67.0423 36.7165 67.6356 39.3584C67.9129 40.6174 68.1949 42.1362 68.4815 43.9151C68.5955 44.623 68.6947 45.2961 68.7789 45.9343L68.9193 46.8056C68.9713 47.2442 68.8635 47.6154 68.5959 47.9192C68.2369 48.3495 67.7397 48.6158 67.1044 48.7182Z" fill="white"/>
<path d="M80.6123 47.3392L80.3373 47.3601C79.8057 47.4005 79.2804 47.4036 78.7615 47.3693C76.8706 47.2366 75.4489 45.9987 74.4962 43.6557C74.0192 42.475 73.711 40.968 73.5715 39.1347C73.492 38.0898 73.5453 36.7305 73.7315 35.0568C73.868 33.7004 74.3979 32.4247 75.3211 31.2297C76.2966 29.9938 77.5359 29.3187 79.0392 29.2044C80.84 29.1227 82.2009 29.8029 83.1219 31.2448C83.6697 32.1435 83.9868 33.1612 84.0733 34.2978C84.1932 35.8744 83.6482 36.7087 82.4382 36.8008C81.3877 36.8069 80.7421 36.4412 80.5016 35.7035C80.3849 35.3805 80.3125 35.0356 80.2847 34.669C80.2554 34.284 80.0929 33.8446 79.7972 33.3508C79.5846 32.9798 79.3683 32.8026 79.1483 32.8193C79.0016 32.8305 78.8513 32.9157 78.6975 33.0749C77.8492 34.0429 77.5255 35.8469 77.7263 38.4868C78.0135 42.2634 78.7988 44.1028 80.0821 44.0052C80.3938 43.9815 80.7746 43.8972 81.2245 43.7524C81.6914 43.5878 82.099 43.4922 82.4473 43.4657C83.2173 43.4072 83.7678 43.6142 84.0988 44.0869C84.2622 44.2957 84.3543 44.5376 84.3752 44.8126C84.4129 45.3076 84.2532 45.7531 83.8961 46.149C83.1369 46.8337 82.0423 47.2304 80.6123 47.3392Z" fill="white"/>
<path d="M100.672 46.8656C99.9388 46.6738 99.409 46.3555 99.0829 45.9107C98.7751 45.4661 98.6265 44.7566 98.637 43.7822L98.6406 43.4513C98.6439 43.1388 98.6379 42.8445 98.6225 42.5686C98.6071 42.2926 98.5638 42.0439 98.4927 41.8225C98.4215 41.6011 98.2392 41.452 97.9459 41.3753C97.6893 41.299 97.4047 41.2591 97.0922 41.2558L96.8991 41.2537C96.1454 41.2455 95.4828 41.3027 94.9115 41.4253C94.635 41.4958 94.4945 41.7334 94.4901 42.1378C94.4871 42.4136 94.5205 42.7265 94.5903 43.0766C94.6937 43.7213 94.7439 44.1815 94.7409 44.4573C94.7331 45.1743 94.5157 45.7327 94.0885 46.1326C93.6986 46.4778 93.2831 46.6479 92.8418 46.6432C92.1616 46.6358 91.549 46.3258 91.004 45.7132C90.5881 45.0652 90.2869 43.1589 90.1004 39.9943C89.9734 38.1359 89.9205 36.2231 89.9417 34.256C89.9775 30.9467 90.2917 29.093 90.8843 28.6949C91.2178 28.4595 91.6144 28.3443 92.074 28.3492C92.4601 28.3534 92.8358 28.4678 93.2011 28.6924C93.4561 28.9158 93.6374 29.1567 93.7449 29.4153C93.871 29.6557 93.9418 29.9139 93.9572 30.1899C93.9912 30.4476 94.0066 30.7236 94.0034 31.0178C93.9893 32.3231 94.0028 33.6287 94.0439 34.9346L94.0331 35.9273C94.0312 36.1112 94.0285 36.3594 94.0251 36.6719C94.0401 36.9847 94.1103 37.298 94.2356 37.6119C94.3609 37.9259 94.5705 38.1028 94.8642 38.1427L95.5258 38.1775C96.8678 38.1919 97.6771 38.1731 97.9534 38.1209C98.2482 38.0689 98.4519 37.9332 98.5646 37.7138C98.6959 37.4762 98.7734 37.1093 98.7971 36.6131C99.0644 32.2951 99.5318 29.8731 100.199 29.3471C100.515 29.0931 100.921 28.9687 101.417 28.9741C102.667 28.9876 103.284 29.7205 103.269 31.1729L103.236 31.6139C103.153 32.4955 103.089 33.3682 103.043 34.2319C103.015 35.0958 102.968 35.9962 102.903 36.9332C102.79 38.9362 102.729 40.3237 102.72 41.0959C102.712 41.8313 102.749 42.6591 102.831 43.5793C102.916 44.2421 102.957 44.7574 102.953 45.1251C102.907 45.9704 102.312 46.5432 101.169 46.8434L100.672 46.8656Z" fill="white"/>
<path d="M114.442 48.2016C111.954 47.9606 110.363 46.6429 109.672 44.2485C109.438 43.2283 109.33 41.9618 109.347 40.4488C109.356 38.8242 109.416 37.4446 109.526 36.31C109.572 35.8342 109.638 35.2495 109.724 34.5558C109.829 33.8457 109.991 33.1317 110.208 32.4139C110.427 31.6777 110.709 31.1509 111.054 30.8333C111.419 30.4992 111.978 30.2578 112.731 30.1091C113.503 29.9622 114.35 29.8872 115.274 29.8844C115.772 29.8956 116.259 29.9243 116.734 29.9704C118.089 30.1015 119.116 30.3672 119.816 30.7675C120.288 31.2381 120.498 31.7387 120.446 32.2694C120.298 32.8461 119.977 33.2029 119.484 33.3399C119.105 33.4325 118.587 33.4469 117.928 33.3831C117.58 33.3495 117.215 33.3049 116.832 33.2494C116.47 33.1773 116.106 33.1236 115.74 33.0881C115.392 33.0544 115.059 33.0591 114.741 33.1022C114.423 33.1453 114.179 33.2787 114.01 33.5024C113.86 33.7096 113.774 33.9321 113.751 34.17L113.724 34.4445C113.71 34.9788 113.939 35.2781 114.413 35.3425C114.594 35.3785 114.795 35.4072 115.014 35.4284L116.005 35.4967C116.518 35.5463 116.948 35.6803 117.296 35.8988C117.8 36.2247 118.021 36.7079 117.959 37.3484C117.865 38.3183 116.707 38.7418 114.484 38.6188C114.026 38.5745 113.748 38.5845 113.65 38.6489C113.571 38.6967 113.519 38.8578 113.492 39.1323C113.414 39.9375 113.42 40.7324 113.51 41.517C113.667 42.9544 113.794 43.8349 113.892 44.1584C114.01 44.4654 114.325 44.6437 114.838 44.6933C114.984 44.7075 115.178 44.7078 115.419 44.6943C115.681 44.6642 115.963 44.6084 116.267 44.527C116.57 44.4455 116.818 44.3679 117.01 44.2941C117.412 44.1484 117.787 44.0923 118.134 44.126C118.244 44.1366 118.434 44.1827 118.703 44.2642C118.992 44.3291 119.269 44.5222 119.533 44.8433C119.8 45.1462 119.913 45.4989 119.874 45.9015C119.723 46.6996 119.118 47.3153 118.06 47.7485C117.003 48.1818 115.797 48.3328 114.442 48.2016Z" fill="white"/>
<path d="M130.137 41.4192C130.3 41.4491 130.504 41.4584 130.749 41.4473C131.627 41.3466 132.382 41.1019 133.014 40.7131C133.664 40.3276 134.182 39.8523 134.566 39.2872C134.953 38.7039 135.219 38.0704 135.363 37.3865C135.36 37.199 135.337 37.0173 135.294 36.8413C135.27 36.6686 135.203 36.5254 135.093 36.4118C135.001 36.3014 134.883 36.233 134.738 36.2065L134.543 36.1988C133.484 36.2663 132.515 36.7056 131.638 37.5167C130.414 38.7877 129.726 39.8391 129.573 40.671C129.497 41.0869 129.685 41.3363 130.137 41.4192ZM125.812 50.3275C125.722 50.3109 125.553 50.2613 125.307 50.1787C125.057 50.1142 124.761 49.8918 124.42 49.5114C124.047 48.9945 123.944 47.9756 124.111 46.4547C124.144 46.0683 124.298 44.975 124.572 43.1747C124.873 41.0242 125.123 39.4064 125.322 38.3213C125.958 34.8491 126.458 32.9407 126.82 32.5958C127.25 32.1887 127.772 32.0414 128.387 32.1542C128.948 32.257 129.355 32.4812 129.61 32.8269C129.746 33.0014 129.902 33.3758 130.077 33.95C130.475 33.8173 130.837 33.6781 131.163 33.5322C131.836 33.2257 132.465 33.0046 133.051 32.869C133.972 32.7388 134.839 32.7483 135.653 32.8975C137.082 33.1595 138.124 33.8459 138.78 34.9569C139.458 36.0532 139.689 37.189 139.473 38.3645C139.264 39.5038 138.71 40.5891 137.811 41.6205C137.01 42.5205 136.174 43.2083 135.302 43.6839C134.732 43.9347 134.436 44.1234 134.413 44.2499C134.584 44.8422 134.794 45.4321 135.042 46.0195C135.569 47.2191 135.772 48.1535 135.649 48.8226C135.583 49.1843 135.422 49.5006 135.167 49.7715C134.77 50.2035 134.21 50.3531 133.486 50.2205C132.618 50.0613 131.979 49.3648 131.57 48.1308C131.347 47.5105 131.178 46.9561 131.062 46.4675C130.972 46.2453 130.831 45.9952 130.639 45.717C130.222 45.1359 129.797 44.8055 129.363 44.7259C129.272 44.7094 129.169 44.7092 129.054 44.7255C128.748 44.7629 128.532 45.1251 128.406 45.8123C128.257 46.6261 128.181 47.3973 128.178 48.1258C128.162 48.4218 128.137 48.6602 128.103 48.841C128.037 49.2027 127.887 49.5116 127.653 49.7678C127.167 50.2769 126.554 50.4634 125.812 50.3275Z" fill="white"/>
<path d="M146.626 53.8062C146.467 53.7623 146.21 53.6914 145.855 53.5937C145.501 53.4959 144.986 53.1825 144.312 52.6533C143.661 52.1113 143.171 51.4327 142.842 50.6175C142.62 50.0412 142.582 49.4872 142.728 48.9554C142.802 48.6896 142.937 48.4408 143.134 48.2091C143.579 47.7024 144.227 47.5663 145.078 47.8009C145.663 47.9621 146.195 48.4522 146.675 49.2711C147.043 49.9445 147.457 50.3448 147.917 50.4718C148.171 50.5225 148.439 50.4822 148.723 50.3507C148.927 50.2352 149.055 50.0799 149.109 49.8849L149.131 49.8052C149.21 49.1023 148.668 48.1994 147.504 47.0965C144.602 44.4084 143.42 42.0895 143.957 40.1398C144.021 39.9094 144.14 39.58 144.316 39.1515C144.491 38.7231 144.902 38.2356 145.548 37.6891C146.213 37.1476 146.978 36.7578 147.845 36.5199C148.729 36.287 149.647 36.2443 150.598 36.3921L150.837 36.4581C151.705 36.6975 152.503 37.0891 153.231 37.633C153.981 38.1639 154.585 38.8074 155.044 39.5633C155.765 40.7538 155.967 41.925 155.649 43.0771C155.551 43.4316 155.414 43.7562 155.238 44.0508C154.787 44.7848 154.119 45.0297 153.233 44.7854C152.276 44.5215 151.845 43.8019 151.94 42.6267C151.968 41.8334 151.778 41.2088 151.369 40.7529C150.979 40.3019 150.571 40.0178 150.145 39.9005C149.662 39.7863 149.203 39.86 148.768 40.1217C148.4 40.4206 148.179 40.703 148.106 40.9689C147.935 41.5892 148.208 42.3608 148.927 43.2835C149.33 43.7571 149.641 44.0813 149.86 44.256C151.175 45.5723 152.112 46.7077 152.669 47.6622C153.333 48.7799 153.511 49.8971 153.204 51.0137C152.935 51.9886 152.343 52.7505 151.429 53.2995C150.053 54.1406 148.452 54.3095 146.626 53.8062Z" fill="white"/>
<path fill-rule="evenodd" clip-rule="evenodd" d="M106.531 79.3673C111.286 82.8696 115.982 87.0695 119.634 92.0223C124.04 98.024 127.921 110.304 116.494 111.144C106.749 111.989 96.1954 104.051 96.3741 93.5269C96.3764 88.4681 97.5965 83.9359 99.8602 80.3371C94.3512 77.4724 88.6679 75.0142 82.4621 73.7757C69.1226 70.6563 48.6019 67.6689 36.6492 76.4739C35.817 77.0738 34.9775 77.6509 34.1441 78.2239C29.9256 81.1239 25.8626 83.917 23.688 89.0306C23.3791 88.968 22.9232 88.773 22.2639 88.293C21.8347 87.9804 21.5848 87.7404 21.4494 87.5565C28.4379 72.5207 49.9971 66.1244 65.644 66.9833C78.7525 67.8342 91.686 70.778 102.936 77.0896C107.637 71.1717 114.947 67.587 123.358 65.9243C142.211 61.7906 164.251 66.5044 182.055 73.2414L182.294 73.3314C194.945 78.0794 214.446 85.3984 219.281 99.2219C219.861 100.677 217.598 102.59 216.322 101.074C200.322 82.8291 175.152 73.6291 151.43 70.5969C139.366 68.993 123.763 67.7862 112.856 74.1518C110.651 75.3667 108.388 77.2792 106.531 79.3673ZM103.687 83.1972C99.7982 89.4663 98.5765 97.371 104.838 102.971C110.463 107.813 125.659 108.844 118.298 97.9497C114.588 92.0082 109.254 87.0506 103.687 83.1972ZM233.128 97.8555C234.58 90.7489 236.017 83.7168 236.171 76.6497C236.288 73.5682 231.88 72.6254 230.777 75.7623C226.132 86.0415 224.212 98.945 223.511 110.689C209.942 100.242 192.833 96.9379 175.778 101.367C173.051 102.116 173.455 107.35 176.587 106.778C193.932 103.919 211.505 108.387 224.202 120.867C226.521 123.316 229.944 120.941 230.062 117.859C230.427 111.07 231.784 104.431 233.128 97.8555Z" fill="#9e4e2d"/>
</g>
<defs>
<clipPath id="clip0">
<rect width="238" height="123" fill="white"/>
</clipPath>
</defs>
</svg>
