<svg xmlns="http://www.w3.org/2000/svg" width="266" height="127" fill="none"  xmlns:v="https://vecta.io/nano"><g fill="#bf8d47"><path opacity=".7" d="M62.773 28.004c-3.151-2.83-26.132-.264-27.811-1.132-1.377-1.132.717-20.754 1.887-23.547.453-1.038.962-1.189 2.151-.679 1.887.925 26.113-.283 26.113-.283.321.604 1.264-1.415 1.453-.679.566 1.736 39.83.245 43.188.226 2.019 0 .415 1.132 2.811.698 5.095-.83 16.208.321 20.057-.66a9.58 9.58 0 0 1 6.716 0c3.038.698 19.132.132 20.981-1.208.434-.358.793-.226.793.226 0 0 11.32.642 11.415.981s.434.66.754.358 12.66-1.887 12.868-.528c.604 3.641-.981 19.019-2.358 22.754s-9.34-.698-15.679 1.585l-29.528-.415-6.321 1.377c-.717-1.321-3.509 1.887-5.188-.472-.717-.943-5.755-1.189-6.868-.226s-26.698-1.736-29.321.811c-4.623-2.34-23.679.377-28.113.811z"/><path opacity=".7" d="M155.677 4.835c3.434 2.075 22.868-5.302 24.528-4.811 1.453.811 4.283 20.245 3.773 23.302-.132 1.076-.547 1.34-1.698 1.094-1.886-.509-22.641 5.83-22.641 5.83-.415-.528-.773 1.641-1.094.962-.906-1.566-34.811 8.189-37.735 8.924-1.774.453-.642-1-2.623 0-4.245 1.887-14.207 3.113-17.339 4.906a7.85 7.85 0 0 1-5.849 1.472c-2.811 0-16.717 3.943-18 5.66-.321.453-.642.377-.755 0 0-.094-10.056 1.755-10.189 1.434s-.528-.528-.755-.189-10.604 4.472-11.094 3.264a98.49 98.49 0 0 1-3.358-22.641c.302-4.17 8.321-1.302 13.302-4.868l25.849-5.868 5.189-2.66c.962 1.132 2.604-2.585 4.66-.642.849.755 5.283 0 6.019-1.226s23.716-3.981 25.395-7.019c4.68 1.113 20.66-5.566 24.415-6.924z"/><path opacity=".7" d="M85.225 55.079c-4.377-2.943-30.037 2.358-31.924 1.774-1.717-.943-1.698-20.622-.509-23.66.434-1.075 1.019-1.302 2.509-.962 1.113.321 27.132-2.585 31.452-2.906.415.604 1.472-1.472 1.717-.736s23.886.189 24.829.189c6.208-.094 26.226 0 27.226 0 2.434 0 .453 1.132 3.34.849 6.132-.585 19.339 1.415 23.962.755 2.664-.582 5.439-.392 7.999.547 3.529 1.019 22.642 2.038 24.925.962.566-.321.962-.151.924.302h.566c.302 0 12.736 1.887 12.774 2.151a.54.54 0 0 0 .078.279.55.55 0 0 0 .494.264c.099-.005.194-.036.277-.09.735-.377 15.094-.396 15.094.906.339 3.773-3.038 18.868-5 22.377s-10.906-1.736-18.547-.17c-40.056-4.17-32.641-3.66-41.943-2.642-.736-1.377-4.17 1.566-6-.887-.754-1-6.603-1.604-7.943-.717-1.795.101-3.595.032-5.377-.208-2.849-.226-25.962-2.396-28.604-.094-5.641-2.302-26.244.679-32.32 1.717z"/><path opacity=".7" d="M186.167 40.287c4.321 2.623 39.886 1.038 42.754 2.113 2.038 1.207-2.151 20.622-4.132 23.415-.717 1-1.51 1.17-3.264.566-2.359-.83-24.226-.981-39.245-.453-.49-.604-1.887 1.415-2.207.679-.208-.434-4.057-.698-9.793-.736-22.999-.113-43.697 1.736-55.093 2.528-3.038.226-.698-1.057-4.264-.415-7.547 1.358-24.339 1.472-30.019 3.057-10.17 2.849-3.774-.774-26.415 2.679-6.887 1.057-13.547 2.34-14.811 3.226-.623.453-1.151.396-1.207 0-.189 0-16.981 1.528-17.113 1.415-.052-.106-.129-.198-.224-.268s-.205-.116-.322-.135-.236-.009-.348.029-.213.101-.296.186c-.83.49-18.528 4.773-19.037 3.566-1.472-3.453-1.547-19 0-23.056.792-2.132 4.34-2.547 8.868-2.887 16.717-1.226 6.189-1.264 21.736-3.264 48.452-6.226 28.301-1.887 47.622-6.491 1.226 1.208 5.189-2.358 8.019-.245 1.151.868 8.868.434 10.509-.623s41.132-.755 45-3.321c5.358 1.547 23.678-.113 43.282-1.566z"/><path opacity=".7" d="M52.037 85.588c-5.283-3.019-44.848-1.887-47.697-2.887-2.302-1.226 2.189-20.622 4.491-23.415.792-.981 1.679-1.113 3.773-.528 3.17 1.056 44.829 1.358 44.829 1.358.528.642 2.245-1.321 2.528-.566.887 1.774 68.357 2.792 74.112 2.962 3.49.113.679 1.17 4.811.887 8.773-.509 27.792 1.358 34.433.604 3.833-.691 7.768-.562 11.547.377 5.17.887 32.849 1.34 36.056.132.793-.34 1.378-.17 1.359.264 0 .094 19.471 1.377 19.547 1.717a.86.86 0 0 0 .212.311c.092.087.202.152.323.192s.248.052.374.037a.87.87 0 0 0 .355-.125c1.038-.415 21.849-1.019 22.132.264.867 3.679-2.566 18.868-5.132 22.641s-15.962-1.302-26.943.585l-50.754-2.283-10.906.962c-1.188-1.377-6.113 1.66-8.905-.811-1.189-.981-9.811-1.547-11.755-.66s-45.735-3.434-50.376-1.038c-7.962-2.641-40.811-1.132-48.415-.981z"/><path opacity=".7" d="M218.657 70.494c5.094 2.415 40.471-3.094 43.15-2.434 2.189.962.434 20.754-1.302 23.735-.603 1.076-1.396 1.302-3.264.943-2.962-.679-40.376 3.641-40.376 3.641-.548-.585-1.887 1.566-2.208.849-1-1.66-61.678 4.83-66.867 5.283-3.132.283-.735-1.075-4.415-.34-7.811 1.472-25.094 1.755-30.98 3.246-3.351 1.092-6.907 1.402-10.396.905-4.736-.302-29.623 2.321-32.377 3.774-.66.434-1.208.339-1.245 0 0-.095-17.622.792-17.735.453-.051-.106-.125-.199-.217-.272a.78.78 0 0 0-.314-.15c-.114-.025-.233-.024-.347.003s-.22.08-.311.155c-.887.509-19.49 3.452-19.886 2.188-1.226-3.547.094-19.094 1.887-22.999s14.49-.491 24.113-3.585l45.811-3.434 9.698-2.17c1.226 1.226 5.283-2.34 8.075-.207 1.189.849 8.981.453 10.623-.642s41.508-1.679 45.282-4.566c7.509 1.774 36.792-3.377 43.603-4.377z"/><path opacity=".7" d="M68.244 119.324c-4.453-3.076-38.301-2.378-40.716-3.378-1.887-1.245 2.34-20.584 4.34-23.358.717-.981 1.472-1.094 3.189-.49 2.698 1.075 38.282 1.887 38.282 1.887.434.641 1.887-1.302 2.17-.547.736 1.774 58.396 3.472 63.301 3.773 2.981.132.547 1.151 4.095.925 7.547-.415 23.716 1.623 29.414.943 3.28-.646 6.668-.478 9.868.491 4.396.944 28.037 1.68 30.811.491.679-.321 1.188-.151 1.17.283 0 .094 16.603 1.566 16.66 1.887.029.108.084.207.159.291a.71.71 0 0 0 .274.187c.104.041.217.056.328.045a.72.72 0 0 0 .314-.108c.906-.396 18.698-.812 18.868.49.679 3.774-2.604 18.868-4.868 22.528s-13.509-1.547-22.943.189l-43.264-2.792-9.339.849c-1-1.378-5.264 1.622-7.547-.887-1-1-8.34-1.642-10.038-.774s-39.018-3.905-43.037-1.547c-6.849-2.641-34.942-1.472-41.49-1.377z"/></g><path d="M101 19.5h68.5c5.5 0 7 2 11 3.5s3 3 5 3c1.6 0 5.333 1.667 7 2.5.667 1 2.2 3.6 3 6 1 3 3 6 5 9.5v2.5c.167 4.167.4 12.9 0 14.5-.5 2-.5 5-2 7.5-1.2 2-4.5 5.167-6 6.5s-5 4-7 4c-2.5 0-3 3-6 3h-26c-1.5 0-3 2.5-4.5 2.5s-3.5 3-5 3-4.5 7.5-6.5 9.5-2 4.5-3.5 4.5c-.941 0-6.206 3.538-9.386 5.808-.032.557-.577 1.077-2.114 1.692-.932.559.222-.342 2.114-1.692.071-1.254-2.46-2.692-2.114-5.808.5-4.5 1-7 2-10 .8-2.4 2.333-3.667 3-4v-3H120c-1.5 0-8.5-1-19-2.5s-15-1-21.5-3c-5.2-1.6-5.5-3.333-5-4-1.667-.833-5.7-4.8-8.5-14 0-7.5-.5-6 0-8s1.5-3 3.5-6.5-.5-5.5 0-8 5.5-6 10-12.5c1.5-1.5 8-3.5 10-4.5s5-2 11.5-2z" fill="#fff"/><path d="M194.114 75.506c10.882-8.081 10.25-30.173 4.88-41.178-7.621-15.644-26.741-15.984-42.025-17.14-19.483-1.5-39.701-1.592-59.069 1.245-7.23 1.061-16.137 1.969-21.888 7.023-6.37 5.601-8.56 13.154-10.397 21.198-3.261 14.284-2.816 29.424 13.161 35.158 14.389 5.163 31.655 5.941 46.969 3.608-2.847 8.771-5.724 17.603-7.788 26.578-1.109 1.533.534 3.482 2.279 3.305a1.9 1.9 0 0 0 1.149-.462l.116-.085c10.542-8.843 19.521-19.749 28.37-30.268.588-.68 17.732-.313 20.351-.68 8.481-1.241 16.912-3.122 23.891-8.301zm-46.524 4.737c-1.939.534-3.632 3.649-4.812 5.026-6.054 7.084-12.135 14.386-18.787 21.004 2.255-7.822 4.986-15.559 7.598-23.252.642-1.894-1.296-3.265-2.966-2.966-13.58 2.415-28.414 1.7-41.854-1.126-9.995-2.112-17.521-7.343-18.025-18.276-.374-7.934 2.302-17.742 5.513-24.955 6.122-13.722 28.761-13.134 41.31-13.886 15.481-.925 31.111-.537 46.551.806 6.384.554 12.771 1.391 18.977 2.979 11.373 2.913 14.995 12.5 16.005 23.083.904 9.471-.47 19.701-9.183 24.99-6.801 4.129-15.946 5.084-23.646 5.85-5.173.517-11.716-.639-16.681.724zm-40.304-38.898c-4.656-2.84-11.903-1.316-13.848 4.023-3.537 4.486-2.421 11.903 2.04 15.46 5.479 4.37 14.624.898 17.317-5.193 2.401-5.428-.748-11.383-5.509-14.291zm1.02 11.485c-.806 3.442-6.291 5.985-9.325 4.227-3.112-1.809-2.959-5.918-1.588-8.842 2.013-2.139 3.598-4.251 6.907-2.605 2.564 1.269 4.71 4.292 4.023 7.22h-.017zm29.687-11.485c-4.66-2.84-11.903-1.316-13.852 4.023-3.537 4.486-2.422 11.903 2.04 15.46 5.479 4.37 14.624.898 17.318-5.193 2.394-5.428-.749-11.383-5.506-14.291zm1.02 11.485c-.806 3.442-6.292 5.985-9.325 4.227-3.112-1.809-2.959-5.918-1.589-8.842 2.014-2.139 3.599-4.251 6.908-2.605 2.547 1.269 4.7 4.292 4.013 7.22h-.007zm29.672-11.486c-4.655-2.84-11.882-1.316-13.845 4.02-3.54 4.489-2.428 11.903 2.021 15.464 5.478 4.37 14.623.898 17.317-5.193 2.411-5.428-.731-11.383-5.493-14.29zm1.021 11.485c-.806 3.442-6.292 5.986-9.326 4.227-3.108-1.809-2.958-5.917-1.588-8.842 2.014-2.143 3.598-4.251 6.907-2.605 2.558 1.269 4.704 4.292 4.017 7.22h-.01z" fill="#2d2d2d"/><defs /></svg>