<svg xmlns="http://www.w3.org/2000/svg" width="210" height="221" fill="none"  xmlns:v="https://vecta.io/nano"><path d="M53 33l-14.5-2h-7L25 42l6.5 24L59 112l52.5 50.5 2 2v14c0 2.4 3.667 5.333 5.5 6.5.5.833 2.7 3.6 7.5 8 4 2.5 2.5 2 4 2.5s4 1.5 6 3 4.5 3.5 6.5 3.5h1.5l-1.5-17v-3.5c0-1.2 1-2.5 1.5-3v-3l6-1.5c0 1 .5 3.3 2.5 4.5 2.5 1.5 1.5 4.5 2.5 4.5s4 2 7.5 2c1.6 1.6 2 .667 2 0 .5.833 1.8 2.5 3 2.5s2.833 1 3.5 1.5l3.5 1.5V185l-2-2c-.5-.833-1.5-2.9-1.5-4.5v-3h3.5c-.167-1.333-2.8-5.4-12-11-2-1.2-.833-1.833 0-2V156c0 3 6-.4 10-2 1 0 5.5 1.5 5.5 2s8 2.5 13.5 3 .5-3 0-5-2-5-3-7.5-2-4.5-2.5-6-.5-2.5-2-5-3-3.5-6-6-3-3-15.5-6.5-4 .5-12.5-4c-.5-1-1.5-4-6-12s-1.5-2.5-6-9-2.5-4-4-5.5-3-2.5-15.5-15c-7.5-8.5-3-3.5-5.5-6s-4.5-2-7.5-5.5-7-7.5-10-9.5-3.5-2.5-9-6-4-2-5.5-3S79 46.5 71 42c-2-1-3-1.5-6-3.5s-4.5-2-8.5-4c-3.2-1.6-3.667-1.667-3.5-1.5z" fill="#efcd6f"/><path d="M156.909 122.88c-9.232-18.536-22.512-35.119-37.457-49.394-15.146-14.46-32.081-26.632-51.017-35.597-9.568-4.53-30.182-15.03-40.488-6.086-8.291 7.195-4.379 19.858-1.186 28.6 7.606 20.84 20.42 40.604 34.194 57.862 14.066 17.623 31.57 33.628 51.214 45.625-.02.067-.035.135-.043.205 0 7.175-.747 16.706 4.389 22.567 7.126 8.106 17.558 13.333 27.352 17.511 1.153.481 2.748-.587 2.675-1.842-.441-8.15-2.043-16.138-2.059-24.312a25.93 25.93 0 0 0 6.282-2.581c.54 5.157 4.12 9.551 7.781 13.086.856.825 2.032.318 2.23-.787.115-.988.328-1.961.637-2.906 4.65 3.004 9.153 6.176 14.216 8.488 1.007.459 1.761-.661 1.692-1.519-.464-5.691-2.698-10.413-5.206-15.332 1.239.175 2.472.306 3.762.373.964.041 1.806-1.051 1.282-1.955-1.428-2.463-7.549-10.61-12.466-12.656 1.19-1.779 2.196-3.673 3.003-5.655 8.335.814 16.295 3.379 24.548 4.724 1.245.202 2.486-1.276 2.119-2.461-3.068-10.067-7.075-21.111-14.364-28.921-5.391-5.816-15.526-6.32-23.089-7.037zm7.557 31.995c-4.755 8.364-12.689 16.327-21.753 19.852-3.771-1.492-7.476-3.119-11.114-4.881 6.757-2.073 12.818-7.179 17.792-11.801 3.941-3.646 8.996-8.841 11.571-14.41a174.4 174.4 0 0 1 3.504 11.24zm-73.557-11.807a50.79 50.79 0 0 0 9.03-4.745l6.523 4.778c-2.93 2.129-5.99 3.972-9.14 5.241a218.35 218.35 0 0 1-6.413-5.274h0zm62.622-17.364c-.69 1.24-1.294 2.644-1.869 3.438-.655.91-1.382 1.8-2.099 2.693l-4.765-7.771c1.683-2.147 3.087-4.498 4.178-6.998a158.28 158.28 0 0 1 4.555 8.638h0zm-3.325 25.398a359.25 359.25 0 0 0-6.294-9.168c1.663-1.688 3.705-3.813 5.66-6.027l5.378 8.566c-1.432 2.312-3.017 4.527-4.744 6.629h0zm-14.199 12.142l-7.596-5.986a71.23 71.23 0 0 0 5.963-5.412 351.05 351.05 0 0 0 8.127 6.942c-2.038 1.668-4.213 3.161-6.502 4.463l.008-.007zm-2.018-31.683c-3.072 3.007-6.287 5.854-9.601 8.649l-5.387-4.904c3.6-3.203 6.943-6.731 10.17-10.325l4.81 6.587.008-.007zm-3.645-7.91l3.304-3.757c1.193-1.367 2.507-2.756 3.807-4.197 1.366 2.518 2.788 5.016 4.265 7.495-2.039 2.462-4.182 4.779-6.391 7.008l-4.984-6.532-.001-.017zm5.28 10.169l5.495 7.638-1.91 2.108c-1.618 1.814-3.311 3.637-5.094 5.404l-7.64-6.85c2.326-2.034 4.605-4.112 6.813-6.153l2.336-2.147zm-12.688 7.625l-7.246 5.907-5.698-4.177c2.546-2.142 4.859-4.363 6.724-5.889.321-.266.632-.546.949-.816l5.264 4.967.007.008zm2.087 1.943l7.663 6.972a76.84 76.84 0 0 1-6.24 5.357l-8.519-6.676a125.69 125.69 0 0 0 7.089-5.661l.007.008zm18.878 14.244l-8.136-7.186 4.921-5.234c.341-.364.982-1.004 1.808-1.836l6.487 9.158a55.04 55.04 0 0 1-5.087 5.09l.007.008zm-1.427-17.697l-5.457-7.449c2.22-2.082 4.325-4.283 6.306-6.593l4.787 7.715c-1.82 2.151-3.736 4.26-5.636 6.327zm5.312-24.971c-1.473 2.25-3.015 4.385-4.623 6.423l-4.339-7.243c1.746-2.037 3.333-4.191 4.41-6.532 1.588 2.417 3.105 4.868 4.552 7.352zM142 105.78l-4.667 5.839-3.091-5.403a.25.25 0 0 0-.034-.038 35.62 35.62 0 0 0 3.561-6.336c1.459 1.954 2.871 3.935 4.236 5.944l-.005-.006zm-5.915 7.37c-2.363 2.905-4.755 5.777-7.224 8.589l-3.815-4.94c2.902-2.884 5.797-6.024 8.231-9.316.893 1.911 1.835 3.796 2.813 5.673l-.005-.006zm-8.384 9.88c-2.59 2.902-5.259 5.742-8.072 8.488l-2.316 2.241-5.26-4.894 5.52-5.01 6.319-5.919 3.814 5.1zm-16.857 6.899l5.225 5.016c-2.496 2.356-5.164 4.744-7.968 6.916a153.69 153.69 0 0 0-6.809-4.442 105.65 105.65 0 0 0 9.557-7.484l-.005-.006zm-2.505 14.568l5.586 4.252-7.641 6.236a218.66 218.66 0 0 1-7.409-5.44c3.18-.6 6.444-2.658 9.469-5.042l-.005-.006zm7.688 5.871l8.619 6.655a49.1 49.1 0 0 1-8.043 4.674c-3.199-1.937-6.341-3.971-9.424-6.101a67.07 67.07 0 0 0 8.853-5.222l-.005-.006zm10.638 8.208l7.477 5.664c-2.319 1.182-4.75 2.128-7.257 2.826a2.12 2.12 0 0 0-.398.208 175.91 175.91 0 0 1-7.988-4.429c2.833-.859 5.572-2.38 8.171-4.263l-.005-.006zm32.002-21.113c-.777 1.722-1.646 3.425-2.607 5.108l-5.041-8.36c1.459-1.696 2.785-3.502 3.965-5.403 1.31 2.842 2.54 5.729 3.689 8.661l-.006-.006zM29.744 35.654c4.642-5.224 14.735-2.252 20.234-.711 1.738.485 3.458 1.059 5.168 1.666-4.074 12.446-12.748 18.801-24.335 24.662-4.045-9.42-6.438-19.562-1.064-25.61l-.003-.008zm10.677 44.1c-1.923-3.544-5.201-9.039-8.07-15.088 11.135-3.955 25.188-13.957 26.713-26.563 6.152 2.489 12.117 5.557 17.885 8.646 16.865 9.028 31.892 21.697 45.352 35.189a166.65 166.65 0 0 1 12.533 14.093c-11.187 18.132-27.726 35.113-47.298 44.099a227.21 227.21 0 0 1-13.946-13.524c-13.185-13.995-24.025-29.987-33.169-46.853zM142.199 198.95c-6.836-3.122-13.288-7.027-19.224-11.636-7.049-5.493-6.556-13.399-7.131-21.255 7.966 4.625 16.325 8.539 24.98 11.695-.859 7.095.663 14.119 1.375 21.196h0zm24.687-31.544c2.467 1.818 4.634 4.011 6.423 6.499-1.153-.131-2.302-.289-3.479-.484-1.016-.171-1.691 1.103-1.263 1.924 2.482 4.774 4.9 9.243 5.845 14.459-4.525-2.34-8.645-5.351-12.969-8.049a1.33 1.33 0 0 0-.553-.188 1.31 1.31 0 0 0-.579.071c-.186.066-.354.174-.492.315a1.31 1.31 0 0 0-.306.496c-.314.851-.573 1.72-.777 2.603-2.895-3.144-4.791-6.521-6.419-10.569a42.78 42.78 0 0 0 10.206-9.26c1.44.728 3.097 1.271 4.363 2.183h0zm22.534-10.798c-7.265-1.526-14.369-3.95-21.857-3.651-1.944-8.955-4.859-17.671-8.694-25.993 5.757.964 11.539 1.545 16.704 4.578 6.976 4.086 11.276 16.682 13.847 25.066zm-91.074-48.001c10.504-7.988 12.724-23.328 5.422-34.063C95.715 62.685 75.329 52.37 61.755 60.62c-15.458 9.402-6.006 30.875 2.448 41.408a2.19 2.19 0 0 0 .135.291c8.307 11.599 22.334 15.185 34.007 6.288zm-29.202-46.81c3.766-1.884 8.967-.547 12.726.839 4.387 1.624 8.377 3.77 10.672 8.005a.27.27 0 0 1-.072.293c-.04.036-.09.059-.143.066a.27.27 0 0 1-.156-.026c-4.007-2.366-7.957-5.006-12.478-6.296-3.448-.984-7.34-1.076-10.566-2.66-.091-.037-.068-.177.014-.218l.004-.004zm25.011 42.821c.454-.916 1.467-1.645 2.206-2.341.546-.512 1.006-.856 1.773-.672.049.013.093.041.127.079s.056.084.065.134c.115.932-.491 1.382-1.15 1.934-.701.586-1.407 1.379-2.281 1.687-.112.048-.236.06-.355.034a.59.59 0 0 1-.457-.501.58.58 0 0 1 .067-.35l.004-.004zM58.242 82.389c.001-.023.008-.045.022-.064s.032-.033.054-.041.045-.009.068-.003a.12.12 0 0 1 .058.035c4.329 4.934 6.685 11.295 11.562 16.008 3.243 3.134 7.052 6.493 11.633 7.441 3.737.772 7.076-.263 10.76-.234.066.004.129.028.182.068s.093.094.115.156a.34.34 0 0 1 .01.194c-.016.064-.05.122-.098.167C80.86 118.559 58.549 94.075 58.23 82.385l.011.004zm51.487 82.818c.014.009.029.015.045.018s.032.003.048-.001.031-.01.044-.019.025-.021.034-.034.015-.029.018-.045.003-.033-.001-.049-.01-.031-.019-.044-.021-.025-.034-.034c-12.524-8.596-24.74-17.108-35.829-27.571-5.218-4.941-10.125-10.202-14.691-15.752-4.711-5.705-8.546-11.93-12.857-17.908-.016-.018-.042.002-.028.025 5.772 13.035 16.745 24.514 26.858 34.287 10.758 10.395 23.045 20.311 36.411 27.127zm-81.747-91.77c-3.41-6.542-6.838-12.526-8.316-19.874-1.186-5.897-.663-11.832.806-17.617.05-.189-.216-.337-.323-.151-6.528 11.067-.606 29.179 7.642 37.77.019.018.045.03.071.032s.053-.005.076-.02.039-.037.047-.063.007-.053-.003-.078h0zm143.894 87.144c-.062.003-.056.094-.006.11 2.878 1.024 6.038 1.369 9.004 2.061l8.333 2.085c.151.023.218-.195.087-.273-2.795-1.65-6.013-2.318-9.158-3.008-2.673-.587-5.524-1.187-8.26-.975zm-23.287 25.316c-.867 5.865.628 12.423 1.484 18.255.031.203.326.162.34-.023.258-2.566.012-5.025-.326-7.572-.477-3.54-.596-7.177-1.292-10.68-.026-.117-.19-.092-.206.02zm-.714-5.693c.052.698.155 1.391.308 2.075.071.351.088.7.124 1.054.027.246.185.555.187.802-.005.026.001.052.016.073s.036.035.062.04.051-.001.072-.015.036-.037.04-.063c.112-.277.301-.324.334-.66.092-1.202-.221-2.4-.891-3.403-.02-.02-.045-.034-.073-.04a.15.15 0 0 0-.084.006c-.026.01-.05.028-.067.051s-.026.051-.028.08h0z" fill="#2d2d2d"/><defs /></svg>