<svg xmlns="http://www.w3.org/2000/svg" width="290" height="140" fill="none"  xmlns:v="https://vecta.io/nano"><g fill="#bf8d47"><path opacity=".7" d="M73.07 44.855c-5.793-2.819-35.993 6.198-37.924 5.928-2.143-.714-4.055-20.622-2.858-24.079.425-1.178 1.12-1.506 2.954-1.39 2.407-.239 4.794-.645 7.145-1.216 8.226-1.583 14.752-3.109 30.895-5.793.56.56 1.699-1.68 2.047-.965.135.212 1.139.232 2.819.154 5.947-.251 12.223-.927 16.336-1.216 14.134-.985 29.968-2.24 44.18-2.259 2.973 0 .598 1.139 4.112.753 8.863-.927 24.485 1.101 29.389.502 3.279-.667 6.677-.427 9.829.695 4.364 1.004 27.902 3.09 30.779 2.433.695-.27 1.178 0 1.12.386.482.135 16.374 3.36 16.374 3.862a.71.71 0 0 0 .117.317.72.72 0 0 0 .25.228.71.71 0 0 0 .326.088c.114.003.228-.022.33-.072.947-.463 18.692 2.105 18.673 3.456 0 3.862-6.122 18.576-8.844 21.877-1.429 1.757-4.519.869-8.419-.386a36.48 36.48 0 0 0-13.227-2.394c-2.587-.502-15.254-2.626-20.313-3.283-22.399-2.838-20.063-2.51-29.37-1.661-.927-1.41-4.962 1.583-7.221-.946-.908-1.043-7.956-1.525-9.539-.618-2.157.108-4.318.069-6.469-.116-1.931 0-30.895-1.583-34.467 1.236-7.28-2.259-31.783 2.916-39.024 4.48z"/><path opacity=".7" d="M199.005 27.206c4.171 1.796 43.369-2.259 47.907-.83 2.317 1.178-2.279 21.453-4.132 24.079-1.371 1.931-1.391 0-11.161.29a285.96 285.96 0 0 0-34.139 3.012c-.579-.56-1.931 1.68-2.279.965-.714-1.081-19.888 1.661-21.24 1.931-17.784 2.549-31.165 5.407-48.621 9.075-3.282.676-.907-.985-4.692.212-7.453 2.337-26.106 5.136-32.188 7.608a26.28 26.28 0 0 1-10.794 2.529c-5.04.386-30.895 7.144-33.463 9.307-.637.521-1.216.541-1.332.097-.29 0-18.498 3.862-18.614 3.572a.85.85 0 0 0-.657-.31.85.85 0 0 0-.656.31c-1.023.83-20.198 6.836-20.815 5.658C.351 91.294-.518 75.402.776 71.077s15.1-2.954 24.793-7.724c59.048-13.999 43.523-9.539 58.025-14.888 1.468 1.062 5.291-3.167 8.593-1.448 1.371.715 9.655-.83 11.277-2.182.695-.579 11.759-2.472 23.171-4.441 2.877-.502 22.92-3.862 25.102-5.658 7.222.695 40.975-6.7 47.269-7.531z"/><path opacity=".7" d="M54.147 84.786c-8.651-2.684-48.505 9.655-50.803 9.655C1.953 94.19.872 88.996.389 83.434c-1.313-14.772.83-14.868 4.403-15.003 0 0 30.74-6.932 50.339-10.195.714.541 2.279-1.796 2.723-1.081a10.06 10.06 0 0 0 3.727 0c20.777-1.931 59.492-5.889 80.326-6.063 3.959 0 .831 1.12 5.484.676 9.462-.888 20.893-.135 31.108 0 13.825 0 10.871-1.583 20.931.309 3.862.714 36.977 2.684 40.8 1.815.908-.29 1.545 0 1.507.367.482.096 21.877 3.032 21.935 3.514.055.13.135.248.236.347s.22.177.351.229.272.078.413.075a1.07 1.07 0 0 0 .41-.091 104.68 104.68 0 0 1 12.84.792c6.044.695 11.972 1.526 12.049 2.201.483 3.862-5.233 18.904-8.399 22.302-1.661 1.796-5.948.927-11.393-.232-16.104-3.476-9.654-1.216-26.763-3.128-47.423-5.31-50.976-3.649-58.893-3.032-1.313-1.41-6.642 1.641-9.79-.753-1.294-1.004-10.813-1.41-12.918-.463-1.931.656-48.736-1.371-55.224 2.414-10.852-2.568-50.514 6.044-52.444 6.353z"/><path opacity=".7" d="M240.115 59.935c4.788 2.375 40.067-.541 44.064.907 2.085 1.217-2.144 21.144-4.094 24.021-.695 1.023-1.487 1.178-3.244.599-4.441-1.468-31.938.27-39.372.907-.521-.618-1.931 1.545-2.162.792-1.526-2.877-58.952 5.136-65.382 6.082-3.07.444-.791-1.023-4.364-.116-7.569 1.931-24.522 3.302-30.18 5.329-3.189 1.371-6.653 1.98-10.118 1.777-5.33 0-28.964 5.252-31.281 7.202-.618.502-1.139.463-1.236 0-.232 0-17.205 2.8-17.282 2.607a.74.74 0 0 0-.239-.255c-.099-.064-.212-.104-.329-.115a.74.74 0 0 0-.346.05.73.73 0 0 0-.283.204c-.811.579-18.498 6.082-19.097 4.885-1.718-3.437-2.819-19.309-1.583-23.538s14.443-2.587 23.48-6.893c57.02-11.277 37.209-5.793 54.8-11.392 1.332 1.139 5.078-2.781 8.09-.83 1.236.792 9.018-.212 10.62-1.429 1.931-1.429 41.921-3.765 45.416-6.642 5.155 1.101 17.803-.734 44.122-4.152z"/><path opacity=".7" d="M84.984 114.774c-4.016-3.09-26.396 2.703-28.327 2.047-1.583-.946-2.53-21.009-1.583-24.118.348-1.12.869-1.352 2.24-1.023.753.232 27.419-3.147 28.462-3.244.386.599 1.313-1.525 1.545-.772.193.444 3.012.444 7.183.405 1.931 0 20.391-.888 40.202 0 2.221.097.386 1.101 3.032.907 6.623-.483 17.281 2.085 21.974 1.68 7.337-.599 2.355.715 19.174 3.398 3.674.78 7.423 1.155 11.18 1.12.579-.251.927 0 .811.425 0 0 12.029 3.862 11.991 4.383s.27.792.695.599c1.217-.387 14.057 2.799 13.806 4.074-.714 3.707-7.917 17.861-10.485 21.008s-8.515-3.861-15.447-3.282l-9.076-2.51c-22.167-5.272-19.618-4.287-26.589-3.862-.559-1.487-3.726 1.448-5.194-1.139-.579-1.043-5.657-1.931-6.913-1.024-.521.386-7.26-.753-14.288-1.371-2.433-.232-13.942-1.139-15.66.579-5.426-2.645-23.944.889-28.732 1.719z"/><path opacity=".7" d="M192.556 99.172c2.22 2.762 21.626 2.916 23.731 5.04.869 1.41-7.067 21.453-7.878 22.882-.56.946-.908 1.004-1.526.328-1.776-1.931-14.057-2.201-17.629-2.124-.212-.657-.946 1.39-1.062.618-.386-2.8-27.13.482-31.339.985-1.487.193-.444-1.101-2.163-.483-3.302 1.197-12.165 1.197-14.791 2.645a5.77 5.77 0 0 1-2.405.991c-.866.144-1.754.089-2.596-.161-2.298-.424-14.289 2.26-15.447 3.862-.27.425-.541.329-.637-.116 0 0-8.67.869-8.767.618s-.463-.598-.637-.251-9.23 3.669-9.655 2.414c-1.625-7.622-2.53-15.38-2.703-23.171.309-4.19 7.202-.657 11.586-3.862l22.881-3.592 4.712-2.143c.772 1.236 2.452-2.298 4.17-.116.696.888 4.635.56 5.426-.483.387-.54 14.598-1.197 15.255-1.255 1.66-.135 7.163-.444 8.129-1.776 3.263 1.738 13.169-.077 23.345-.85z"/></g><path d="M157.325 40.865c2.066-1.631 6.345-5.126 6.931-6.062.734-1.17-2.724-.453 3.632-4.996s20.325-10.834 21.373-11.306 2.026.768 3.423.139c1.117-.503 7.125-.968 9.989-1.138.6.71 2.009 2.036 2.847 1.658l3.842-1.73c1.397-.629 3.143-1.416 5.867-.962 2.18.363 3.971.732 4.594.872l3.633 3.405c2.149 1.973 6.761 6.617 6.534 7.979s-1.029 4.244-.714 4.943.21 3.266-3.666 5.852c-3.126 2.085-6.909 3.92-8.176 4.736-.048.365-.288 1.429-.921 3.981-1.639 6.619-1.866 7.982-2.25 8.995s-5.151 4.42-10.739 6.936l-16.763 7.549c-2.445 1.101-11.701 1.069-13.412.999-1.37-.055-4.296 1.654-5.588 2.517-.332 1.129-1.414 3.577-3.09 4.332-2.096.944-4.855 1.346-9.43 4.246s-13.532 8.195-18.072 10.239l-20.256 9.123c-7.334 3.302-17.34 9.068-19.278 10.361s-3.213 3.127-5.308 4.071-2.514 2.813-5.239 2.359-4.313.683-7.195-.12-11.125-.451-11.981-.486-4.505 1.189-5.169.648-6.025.613-5.118-4.836-.037-7.545 1.587-9.536.192-.507 2.391-4.017 6.215-9.52 7.489-11.354-1.293-1.938 3.788-4.647 7.806-2.255 20.954-9.437 8.643-5.993 17.374-9.925 18.003-8.528 19.941-9.82 5.903-1.818 6.985-3.146 3.754-3.791 4.452-4.105c.559-.252 2.761-1.357 3.792-1.878 2.018-1.321 7.872-4.693 10.946-6.439z" fill="#fff"/><path d="M229.41 23.092c-5.384-10.136-18.822-12.282-27.114-4.698a20.53 20.53 0 0 0-7.812-2.781c-6.07-.826-12.637 3.906-17.645 6.539-8.263 4.339-15.078 7.793-19.502 16.321-.057.139-.099.284-.126.431-3.56 1.408-6.947 3.888-10.125 5.644L128.51 54.808 93.885 73.627l-18.707 9.82c-2.665 1.377-9.086 3.006-10.327 6l-11.46 27.63c-.605 1.446.662 2.76 2.008 2.969 6.617.977 13.39 1.218 20.053 1.714l9.454.685c3.761.268 8.226-3.457 11.469-5.09l78.482-40.777c.041-.021.059-.061.099-.084a23.95 23.95 0 0 0 2.585-1.691c11.347 3.262 25.119-7.73 34.223-13.368 5.44-3.366 6.993-9.521 6.568-15.618 9.565-3.127 16.199-13.093 11.078-22.726zm-40.158-1.742c5.867 5.362 10.867 9.8 14.526 17.405 3.446 7.173 4.696 12.902 2.957 20.367l-4.81 3.142c4.303-13.222-8.259-33.675-21.238-36.95 2.813-1.396 5.693-2.693 8.565-3.965h0zM99.06 75.998l50.053-27.397c8.021-4.432 14.609-9.305 23.553-3.915.037.019.064.047.103.068-16.819 8.453-33.24 17.681-49.728 26.747-13.482 7.414-27.873 14.204-40.765 22.672-2.467-2.359-5.291-4.164-8.225-5.075L99.06 75.998zM84.403 96.443c13.926-5.72 27.193-14.446 40.294-21.675l50.597-28.1a16.8 16.8 0 0 1 4.956 7.942c-14.536 5.69-28.329 14.846-41.941 22.357L89.123 104.27c-1.153-2.844-2.75-5.487-4.732-7.831l.012.004zm-8.675 20.811l-7.177-.485c-.573-3.527-2.483-8.92-6.319-9.214l3.945-9.512c1.045-2.524 1.512-4.34 2.739-5.752 12.146 2.659 18.429 13.635 16.13 25.637l-9.322-.683.004.009zm24.782-7.069c-2.255 1.153-6.557 4.218-10.287 6.135.8-2.909.661-6.097-.19-9.247 16.876-8.474 33.345-17.73 49.901-26.834 13.511-7.43 27.93-14.233 40.845-22.723.624 6.014-1.919 12.217-7.683 15.526-.013.007-.024.013-.038.019-24.397 11.934-48.357 24.754-72.552 37.115l.004.008zm76.905-67.459c-3.729-3.848-9.061-5.317-14.247-5.035 1.909-2.076 4.012-3.966 6.28-5.642 7.207 4.405 12.934 7.6 17.229 15.724 2.154 4.071 3.047 8.529 3.118 13.086.049 3.134-1.141 5.923-1.826 8.826a20.11 20.11 0 0 1-6.454 1.189c6.175-8.257 3.981-19.81-4.104-28.156l.004.008zm14.702 25.246c2.568-6.597-.039-16.111-2.62-21.63-3.058-6.54-10.651-14.597-18.515-15.396a72.75 72.75 0 0 1 7.797-4.65c6.466 4.648 11.979 8.659 16.099 15.95 4.462 7.895 2.534 14.772 2.76 22.711-1.797 1.08-3.652 2.111-5.525 3.007l.004.008zm18.24-11.595c1.158-4.784-1.221-11.116-2.811-15.131-3.1-7.791-8.399-17.423-16.722-20.503 8.748-2.878 16.41 8.231 19.605 14.709s5.062 15.478-.071 20.927l-.001-.003zm-4.582-35.449c7.102-3.832 14.433-3.071 19.36 4.315 4.689 7.049-1.847 12.538-7.568 15.72a32.8 32.8 0 0 0-1.401-4.512c-2.242-5.666-5.684-11.452-10.389-15.519l-.002-.003z" fill="#2d2d2d"/><defs /></svg>