<svg xmlns="http://www.w3.org/2000/svg" width="171" height="178" fill="none"  xmlns:v="https://vecta.io/nano"><path d="M68.5 40l-10-9L44 32l-10 3-4.5 17.5L39 66l-5 14.5.5 28c0 .4 11.667 18.833 17.5 28l9 6.5-4 10c1.333.167 4.4.4 6 0s2.667-2.5 3-3.5l5.5-.5 9 1.5H101l9-6 4.5 5 9 5 2-5 .5-7.5 4-6.5 15.5-19 2.5-29-4-18.5c1.5-2.333 4.6-7.1 5-7.5.5-.5 4-12 4-12.5 0-.4-2-6.167-3-9l-9.5-9-2.5-1.5c-2.5 0-7.8.1-9 .5s-5.833 2.5-8 3.5l-2.5 7.5c-2.167-1-6.9-3.3-8.5-4.5-2-1.5-7-1.5-8-1.5s-6 .5-7.5 1-17 1-19.5 1.5c-2 .4-5.167 1.833-6.5 2.5z" fill="#efcd6f"/><g fill="#2d2d2d"><path d="M147.567 75.18c-.014-.096-.036-.191-.065-.284l-2.186-6.187c9.635-6.049 11.289-23.128 4.589-31.619-8.902-11.285-25.768-12.442-34.142-.214-10.488-4.743-22.69-6.172-35.707-3.468a63.21 63.21 0 0 0-11.046 3.361c-7.206-11.648-23.699-12.248-33.766-3.496-10.614 9.221-10.14 26.786 1.108 35.86-5.54 13.163-6.575 28.425-2.032 43.366 4.194 13.787 12.563 24.455 23.309 31.346-2.319 3.809-3.572 10.967 1.759 12.594 2.375.716 4.672-.218 6.604-1.595 1.53-1.089 3.909-2.891 4.785-4.823 9.43 3.018 19.857 3.675 30.473 1.669a60.75 60.75 0 0 0 10.637-3.04c2.479 4.738 8.342 9.464 13.477 5.683 4.087-3.005 2.827-9.382.832-13.502 20.055-14.646 30.727-40.632 21.371-65.65zM131.64 32.608c6.306-.567 12.015 3.665 15.286 8.683 5.503 8.446.337 15.63-3.688 22.786-5.499-11.092-13.687-19.788-23.682-25.302 3.483-3.182 7.01-5.713 12.084-6.167h0zm-96.068 27.46c-3.377-5.606-4.479-12.311-1.514-18.304 2.685-5.432 9.368-8.295 14.9-9.562 6.73-1.533 11.914 1.786 16.442 6.185a59.62 59.62 0 0 0-26.808 26.019c-.914-1.525-2.191-2.95-3.02-4.338zm25.592 92.244c-2.178.128-.787-3.87.014-6.378a55.4 55.4 0 0 0 5.197 2.467c-1.52 1.676-2.9 3.772-5.219 3.909l.008.002zm38.962-5.389c-27.484 6.101-52.048-9.62-61.049-35.574-11.165-32.189 8.23-63.861 40.028-72.83 29.768-8.394 54.905 9.663 64.758 37.238.018.05.039.099.061.147 3.174 17.39 3.176 32.733-7.084 47.869-8.37 12.34-22.48 19.991-36.724 23.155l.011-.006zm23.53 2.943c-.617 2.716-4.09 1.358-5.401.175-.998-.886-1.742-1.988-2.559-3.024a62.72 62.72 0 0 0 6.743-3.651c.616 2.163 1.712 4.278 1.207 6.505l.01-.005zM53.389 36.837c-2.64-2.298-6.69-.934-9.617.255-3.162 1.28-7.061 3.988-7.34 7.677 0 .043.012.086.035.122s.057.065.096.083.083.024.126.018.083-.025.115-.053c2.344-2.136 4.354-4.208 7.279-5.62 2.976-1.42 6.154-.998 9.149-1.964.211-.053.359-.345.156-.518z"/><path fill-rule="evenodd" d="M83.126 99.128c.156-2.363.311-4.706 1.964-6.466 4.236-4.525 11.872-1.257 10.489 5.23-.65 2.882-4.315 4.378-6.81 4.525a6.63 6.63 0 0 1-3.195-.685c-.991-.492-1.844-1.223-2.48-2.127l.032-.476zm3.429-2.141c.077-1.163.153-2.317.967-3.184 2.086-2.228 5.846-.619 5.165 2.575-.32 1.419-2.125 2.156-3.353 2.228-.544.02-1.085-.096-1.573-.338a3.27 3.27 0 0 1-1.221-1.047l.016-.234z"/></g><path d="M89.192 54c.597 4.847.767 9.857.767 14.737 0 1.75.056 3.948-.426 5.637-.596 2.087-.341 4.52-.341 6.67 0 1.203-.192 2.269-.192 3.452M128 96.2c-4.291.621-8.727.798-13.047.798-1.549 0-3.495.059-4.991-.444-1.847-.62-4.002-.355-5.905-.355-1.066 0-2.009-.2-3.057-.2" stroke="#2d2d2d" stroke-width="4" stroke-linecap="round" stroke-linejoin="round"/><defs /></svg>